<svg id="svg" version="1.1" xmlns="http://www.w3.org/2000/svg" xmlns:xlink="http://www.w3.org/1999/xlink" width="400" height="400" viewBox="0, 0, 400,400"><g id="svgg"><path id="path0" d="M260.000 0.764 C 260.000 1.224,260.251 1.600,260.557 1.600 C 260.864 1.600,261.222 1.881,261.354 2.225 C 261.486 2.569,261.763 2.746,261.970 2.619 C 262.176 2.491,262.460 2.573,262.600 2.800 C 262.740 3.027,263.068 3.091,263.328 2.942 C 263.587 2.794,263.667 2.819,263.503 2.999 C 263.155 3.384,263.953 4.476,264.387 4.208 C 264.550 4.107,265.101 4.469,265.612 5.012 C 266.122 5.556,266.680 6.000,266.852 6.000 C 267.023 6.000,267.623 6.460,268.185 7.022 C 268.747 7.583,269.390 7.930,269.613 7.792 C 269.837 7.654,269.970 7.692,269.910 7.876 C 269.849 8.061,270.970 9.400,272.400 10.853 C 275.766 14.271,277.863 16.946,278.707 18.900 C 278.969 19.505,279.367 20.000,279.591 20.000 C 279.816 20.000,280.000 20.506,280.000 21.125 C 280.000 21.743,280.360 22.636,280.800 23.108 C 281.357 23.705,281.600 24.519,281.600 25.783 C 281.600 26.782,281.774 27.600,281.987 27.600 C 282.201 27.600,282.260 27.900,282.119 28.266 C 281.955 28.695,282.021 28.834,282.305 28.658 C 282.721 28.401,282.821 29.040,282.812 31.900 C 282.810 32.395,282.993 32.800,283.219 32.800 C 283.471 32.800,283.437 33.145,283.128 33.700 C 282.853 34.195,282.616 34.690,282.600 34.800 C 282.584 34.910,282.364 35.374,282.109 35.830 C 281.855 36.287,281.605 37.682,281.555 38.930 C 281.495 40.401,281.291 41.200,280.974 41.200 C 280.424 41.200,280.000 42.085,280.000 43.233 C 280.000 43.655,279.640 44.360,279.200 44.800 C 278.760 45.240,278.400 45.960,278.400 46.400 C 278.400 46.840,278.040 47.560,277.600 48.000 C 277.160 48.440,276.800 49.060,276.800 49.378 C 276.800 49.695,276.171 50.640,275.402 51.478 C 274.633 52.315,274.003 53.275,274.002 53.612 C 274.001 53.948,273.640 54.483,273.200 54.800 C 272.760 55.117,272.400 55.532,272.400 55.722 C 272.400 55.911,271.725 56.722,270.900 57.523 C 270.075 58.325,269.400 59.078,269.400 59.199 C 269.400 59.319,268.369 60.448,267.109 61.709 C 265.848 62.969,264.948 64.007,265.109 64.016 C 265.269 64.025,264.905 64.301,264.300 64.629 C 263.695 64.957,263.200 65.478,263.200 65.786 C 263.200 66.094,262.840 66.460,262.400 66.600 C 261.960 66.740,261.600 67.022,261.600 67.227 C 261.600 67.432,261.326 67.600,260.991 67.600 C 260.657 67.600,260.180 68.044,259.933 68.587 C 259.685 69.131,259.349 69.492,259.185 69.391 C 259.021 69.290,258.583 69.671,258.212 70.238 C 257.840 70.805,257.442 71.175,257.326 71.059 C 257.211 70.944,256.685 71.315,256.158 71.883 C 255.631 72.452,255.200 72.767,255.200 72.583 C 255.200 72.399,254.853 72.598,254.429 73.025 C 254.006 73.451,253.027 74.250,252.256 74.800 C 251.484 75.350,250.763 76.133,250.653 76.540 C 250.544 76.947,250.276 77.171,250.059 77.037 C 249.842 76.902,249.386 77.071,249.047 77.411 C 248.707 77.750,248.287 78.067,248.114 78.114 C 247.941 78.161,247.849 78.348,247.910 78.530 C 247.970 78.711,247.839 78.748,247.618 78.611 C 247.050 78.260,245.600 79.115,245.600 79.802 C 245.600 80.118,245.359 80.282,245.061 80.168 C 244.764 80.054,243.623 80.671,242.525 81.539 C 241.427 82.406,240.185 83.191,239.765 83.282 C 239.344 83.373,239.041 83.648,239.090 83.894 C 239.140 84.140,238.645 84.458,237.990 84.602 C 237.336 84.746,236.800 84.990,236.800 85.146 C 236.800 85.553,234.553 86.820,234.293 86.559 C 234.172 86.439,233.954 86.716,233.808 87.176 C 233.662 87.635,233.367 87.904,233.154 87.771 C 232.940 87.639,232.503 87.749,232.182 88.015 C 231.862 88.280,231.600 88.358,231.600 88.187 C 231.600 88.016,231.285 88.160,230.900 88.507 C 230.515 88.854,229.690 89.265,229.068 89.420 C 228.445 89.576,227.841 89.950,227.725 90.251 C 227.609 90.553,227.184 90.800,226.781 90.800 C 226.377 90.800,225.934 90.983,225.796 91.207 C 225.658 91.430,225.377 91.509,225.172 91.383 C 224.968 91.256,224.800 91.324,224.800 91.533 C 224.800 91.742,224.103 92.192,223.252 92.533 C 222.401 92.873,221.597 93.430,221.467 93.769 C 221.337 94.109,220.997 94.297,220.711 94.187 C 220.426 94.078,219.481 94.351,218.612 94.794 C 217.742 95.237,216.826 95.600,216.577 95.600 C 216.327 95.600,215.707 95.960,215.200 96.400 C 214.693 96.840,213.876 97.200,213.385 97.200 C 212.882 97.200,212.215 97.622,211.859 98.166 C 211.415 98.844,210.980 99.068,210.403 98.917 C 209.892 98.783,209.317 98.986,208.890 99.451 C 208.510 99.863,207.570 100.255,206.800 100.322 C 206.030 100.389,205.130 100.750,204.800 101.124 C 204.470 101.497,203.570 101.863,202.800 101.935 C 202.030 102.008,201.220 102.259,201.000 102.492 C 200.723 102.787,200.784 102.818,201.200 102.595 C 201.556 102.403,201.664 102.420,201.467 102.636 C 201.283 102.836,201.013 103.008,200.867 103.018 C 199.593 103.104,197.253 103.794,195.978 104.458 C 195.125 104.903,194.169 105.305,193.854 105.351 C 193.539 105.397,193.038 105.632,192.740 105.872 C 192.443 106.113,191.435 106.436,190.500 106.590 C 189.565 106.744,188.665 107.098,188.500 107.376 C 188.335 107.655,187.396 107.987,186.414 108.115 C 185.432 108.242,184.442 108.599,184.214 108.907 C 183.986 109.216,182.934 109.586,181.876 109.730 C 180.817 109.874,179.680 110.263,179.347 110.596 C 179.015 110.928,178.216 111.200,177.571 111.200 C 176.927 111.200,176.400 111.363,176.400 111.563 C 176.400 111.762,176.040 111.831,175.600 111.716 C 175.082 111.580,174.800 111.704,174.800 112.066 C 174.800 112.381,174.319 112.678,173.700 112.744 C 171.926 112.936,171.472 113.041,170.100 113.573 C 169.385 113.851,168.800 114.208,168.800 114.366 C 168.800 114.525,168.089 114.598,167.221 114.530 C 165.964 114.430,165.517 114.584,165.027 115.283 C 164.525 116.000,164.084 116.142,162.635 116.052 C 161.471 115.981,160.495 116.181,159.805 116.633 C 159.226 117.013,157.818 117.398,156.676 117.490 C 155.535 117.581,154.293 117.935,153.917 118.275 C 153.527 118.628,152.239 118.963,150.917 119.056 C 149.377 119.164,148.399 119.450,148.000 119.909 C 147.573 120.401,146.714 120.620,145.018 120.668 C 143.493 120.712,142.485 120.940,142.218 121.303 C 141.968 121.641,140.708 121.970,139.085 122.121 C 137.592 122.259,136.120 122.623,135.814 122.929 C 135.497 123.246,133.918 123.605,132.129 123.765 C 130.345 123.926,128.570 124.328,128.000 124.702 C 127.450 125.062,126.454 125.311,125.787 125.255 C 123.977 125.104,122.400 125.829,122.400 126.814 C 122.400 127.272,122.259 127.560,122.086 127.453 C 121.685 127.206,121.709 126.523,121.626 140.702 C 121.587 147.358,121.666 152.983,121.801 153.202 C 121.936 153.421,121.902 153.603,121.724 153.606 C 121.546 153.609,121.670 153.787,122.000 154.000 C 122.478 154.309,122.487 154.389,122.046 154.394 C 121.725 154.397,121.919 154.736,122.509 155.200 C 123.762 156.185,125.709 156.234,126.640 155.303 C 127.207 154.736,128.132 154.596,131.632 154.551 C 134.679 154.511,136.301 154.309,137.213 153.854 C 137.920 153.501,139.662 153.093,141.084 152.947 C 142.605 152.791,143.751 152.471,143.867 152.170 C 143.983 151.866,145.154 151.544,146.732 151.380 C 148.199 151.227,149.635 150.915,149.921 150.685 C 150.208 150.455,151.198 150.142,152.121 149.990 C 154.507 149.597,154.946 149.458,155.399 148.948 C 155.619 148.699,156.770 148.390,157.955 148.260 C 159.140 148.131,160.424 147.740,160.808 147.393 C 161.194 147.044,162.432 146.698,163.577 146.620 C 164.717 146.543,165.953 146.216,166.325 145.894 C 166.696 145.572,167.669 145.206,168.488 145.081 C 169.306 144.956,170.368 144.488,170.848 144.041 C 171.328 143.594,171.878 143.325,172.070 143.443 C 172.693 143.828,174.800 143.153,174.800 142.568 C 174.800 142.154,175.335 142.000,176.771 142.000 C 178.099 142.000,178.967 141.776,179.428 141.315 C 180.166 140.577,180.905 140.329,182.259 140.363 C 182.741 140.375,183.394 139.964,183.746 139.426 C 184.180 138.764,184.623 138.533,185.181 138.679 C 186.386 138.994,188.087 138.471,187.752 137.888 C 187.598 137.620,187.613 137.528,187.787 137.684 C 187.960 137.840,188.664 137.734,189.351 137.449 C 190.038 137.163,190.808 136.999,191.063 137.085 C 191.317 137.171,191.767 136.917,192.063 136.521 C 192.631 135.758,193.245 135.521,194.683 135.508 C 195.169 135.504,195.872 135.162,196.245 134.750 C 196.619 134.337,197.424 134.000,198.035 134.000 C 198.741 134.000,199.228 133.745,199.370 133.300 C 199.523 132.823,200.061 132.576,201.059 132.524 C 201.864 132.482,202.648 132.247,202.800 132.000 C 202.952 131.754,203.870 131.311,204.838 131.017 C 205.807 130.722,206.568 130.321,206.528 130.125 C 206.489 129.930,206.872 129.735,207.380 129.693 C 208.748 129.580,210.400 128.878,210.400 128.410 C 210.400 128.184,210.843 128.000,211.384 128.000 C 211.926 128.000,212.691 127.664,213.084 127.253 C 213.478 126.842,214.458 126.387,215.261 126.242 C 216.065 126.097,216.824 125.713,216.949 125.389 C 217.073 125.065,217.632 124.800,218.191 124.800 C 218.750 124.800,219.508 124.449,219.875 124.020 C 220.242 123.592,220.691 123.332,220.871 123.444 C 221.052 123.556,221.200 123.462,221.200 123.236 C 221.200 123.010,221.468 122.928,221.797 123.054 C 222.137 123.185,222.499 123.008,222.639 122.644 C 222.773 122.292,223.045 122.104,223.242 122.226 C 223.439 122.348,223.600 122.257,223.600 122.024 C 223.600 121.791,224.056 121.600,224.613 121.600 C 225.169 121.600,225.722 121.348,225.840 121.041 C 225.958 120.733,226.843 120.283,227.808 120.040 C 228.772 119.797,229.705 119.346,229.881 119.037 C 230.056 118.729,230.560 118.414,231.000 118.338 C 231.440 118.262,231.928 118.020,232.085 117.800 C 232.242 117.580,232.512 117.385,232.685 117.366 C 233.805 117.247,235.213 116.340,234.960 115.901 C 234.801 115.625,234.821 115.536,235.004 115.701 C 235.187 115.867,235.756 115.728,236.268 115.392 C 236.781 115.056,237.200 114.903,237.200 115.052 C 237.200 115.201,237.515 114.980,237.900 114.561 C 238.285 114.143,238.960 113.737,239.400 113.660 C 239.840 113.583,240.290 113.382,240.400 113.214 C 240.510 113.046,241.011 112.780,241.513 112.623 C 242.015 112.466,242.830 111.934,243.324 111.439 C 243.818 110.945,244.431 110.610,244.686 110.695 C 244.941 110.780,245.521 110.479,245.975 110.025 C 246.429 109.571,247.057 109.200,247.371 109.200 C 247.686 109.200,248.190 108.953,248.491 108.652 C 248.792 108.350,249.615 107.806,250.320 107.442 C 251.024 107.077,251.600 106.604,251.600 106.390 C 251.600 106.175,251.932 106.000,252.338 106.000 C 252.744 106.000,253.402 105.640,253.800 105.200 C 254.198 104.760,254.766 104.400,255.062 104.400 C 255.358 104.400,255.600 104.040,255.600 103.600 C 255.600 103.067,255.867 102.800,256.400 102.800 C 257.655 102.800,258.126 102.529,260.060 100.700 C 260.467 100.315,260.954 100.000,261.142 100.000 C 261.329 100.000,261.969 99.550,262.562 99.000 C 263.156 98.450,263.902 98.000,264.221 98.000 C 264.539 98.000,264.800 97.826,264.800 97.613 C 264.800 97.400,265.295 96.957,265.900 96.629 C 266.505 96.301,266.820 96.014,266.600 95.992 C 266.380 95.971,267.010 95.546,268.000 95.050 C 268.990 94.553,269.755 93.934,269.700 93.673 C 269.645 93.413,269.797 93.200,270.037 93.200 C 270.569 93.200,272.600 91.643,272.600 91.235 C 272.600 90.589,273.932 89.598,274.121 90.104 C 274.238 90.416,274.424 90.304,274.623 89.800 C 275.047 88.728,277.127 86.593,277.441 86.908 C 277.744 87.211,283.200 81.783,283.200 81.179 C 283.200 80.945,283.348 80.844,283.529 80.956 C 283.955 81.219,285.218 79.752,284.867 79.400 C 284.720 79.254,284.803 79.193,285.052 79.267 C 285.548 79.413,287.600 77.397,287.600 76.762 C 287.600 76.544,288.590 75.351,289.800 74.112 C 291.010 72.873,292.000 71.723,292.000 71.558 C 292.000 71.392,292.281 70.976,292.625 70.633 C 292.968 70.289,293.276 69.646,293.310 69.204 C 293.343 68.762,293.596 68.400,293.871 68.400 C 294.409 68.400,295.438 66.809,294.914 66.787 C 294.741 66.779,294.969 66.464,295.421 66.087 C 295.872 65.709,296.302 65.220,296.375 65.000 C 296.758 63.851,297.365 62.800,297.646 62.800 C 297.821 62.800,298.088 62.125,298.240 61.300 C 298.392 60.475,298.830 59.397,299.213 58.903 C 299.596 58.410,300.028 57.375,300.173 56.603 C 300.318 55.832,300.616 55.200,300.836 55.200 C 301.055 55.200,301.197 54.975,301.150 54.700 C 300.992 53.776,301.662 50.212,302.234 48.940 C 302.887 47.486,303.056 37.200,302.427 37.200 C 301.860 37.200,301.151 34.034,301.150 31.500 C 301.150 31.115,300.971 30.800,300.752 30.800 C 300.532 30.800,300.464 30.620,300.600 30.400 C 300.736 30.180,300.671 30.000,300.455 30.000 C 300.240 30.000,299.948 29.472,299.806 28.828 C 299.664 28.183,299.302 27.450,299.000 27.200 C 298.698 26.950,298.336 26.217,298.194 25.572 C 298.052 24.928,297.793 24.400,297.617 24.400 C 297.441 24.400,297.076 23.866,296.806 23.213 C 296.535 22.561,295.960 21.914,295.527 21.777 C 295.094 21.639,294.844 21.423,294.971 21.296 C 295.098 21.169,294.903 20.735,294.539 20.332 C 294.174 19.930,293.994 19.600,294.138 19.600 C 294.282 19.600,293.995 19.195,293.500 18.700 C 293.005 18.205,292.460 17.847,292.289 17.904 C 292.118 17.961,291.862 17.691,291.720 17.304 C 291.435 16.524,289.202 14.215,289.197 14.697 C 289.196 14.863,288.837 14.460,288.400 13.800 C 287.963 13.140,287.598 12.780,287.588 13.000 C 287.579 13.220,287.314 12.950,287.000 12.400 C 286.686 11.850,286.422 11.554,286.414 11.742 C 286.406 11.931,285.878 11.526,285.240 10.842 C 284.601 10.159,283.791 9.600,283.440 9.600 C 283.088 9.600,282.800 9.330,282.800 9.000 C 282.800 8.670,282.665 8.419,282.500 8.443 C 281.706 8.558,280.400 7.839,280.400 7.287 C 280.400 6.946,280.284 6.783,280.142 6.925 C 280.000 7.067,279.162 6.653,278.281 6.005 C 277.400 5.357,276.547 4.909,276.385 5.009 C 276.223 5.109,275.993 4.815,275.872 4.355 C 275.752 3.896,275.507 3.604,275.327 3.707 C 275.147 3.809,274.460 3.566,273.800 3.165 C 273.140 2.764,271.970 2.122,271.200 1.739 C 270.430 1.355,269.710 0.942,269.600 0.821 C 268.646 -0.233,260.000 -0.285,260.000 0.764 M293.576 247.893 C 293.039 248.294,292.105 248.872,291.500 249.178 C 290.895 249.485,290.400 249.885,290.400 250.068 C 290.400 250.250,289.971 250.400,289.446 250.400 C 288.862 250.400,288.230 250.800,287.816 251.431 C 287.428 252.024,286.903 252.372,286.582 252.248 C 286.275 252.130,285.793 252.261,285.512 252.539 C 284.930 253.114,283.548 253.758,283.100 253.664 C 282.935 253.629,282.800 253.762,282.800 253.961 C 282.800 254.327,280.461 255.365,279.889 255.254 C 279.718 255.220,279.473 255.464,279.346 255.796 C 279.219 256.128,278.784 256.400,278.381 256.400 C 277.977 256.400,277.534 256.583,277.396 256.807 C 277.258 257.030,276.998 257.122,276.818 257.011 C 276.638 256.900,276.278 257.065,276.018 257.379 C 275.758 257.692,275.030 258.062,274.400 258.200 C 273.770 258.338,273.056 258.691,272.813 258.984 C 272.570 259.277,271.760 259.631,271.013 259.771 C 270.196 259.924,269.602 260.294,269.524 260.697 C 269.432 261.175,268.949 261.383,267.838 261.421 C 266.967 261.452,266.086 261.741,265.840 262.077 C 265.345 262.754,265.214 262.800,263.776 262.800 C 263.097 262.800,262.850 262.957,263.042 263.268 C 263.238 263.585,263.111 263.652,262.650 263.475 C 262.229 263.313,261.883 263.439,261.742 263.807 C 261.613 264.142,261.011 264.400,260.357 264.400 C 259.721 264.400,258.840 264.760,258.400 265.200 C 257.960 265.640,257.071 266.000,256.424 266.000 C 255.777 266.000,255.134 266.183,254.996 266.407 C 254.858 266.630,254.577 266.709,254.372 266.583 C 254.168 266.456,254.000 266.611,254.000 266.926 C 254.000 267.452,253.396 267.601,251.105 267.639 C 250.723 267.645,250.183 267.954,249.905 268.325 C 249.627 268.696,248.770 269.061,248.000 269.135 C 247.230 269.210,246.293 269.546,245.917 269.882 C 245.542 270.218,244.468 270.550,243.531 270.620 C 242.594 270.690,241.642 270.999,241.414 271.307 C 241.186 271.616,240.100 271.990,239.000 272.139 C 237.900 272.289,236.940 272.589,236.867 272.805 C 236.793 273.022,236.478 273.200,236.167 273.200 C 235.855 273.200,235.600 273.349,235.600 273.531 C 235.600 273.713,235.060 273.782,234.400 273.685 C 233.736 273.588,233.200 273.691,233.200 273.917 C 233.200 274.142,232.884 274.242,232.498 274.142 C 232.112 274.041,231.437 274.283,230.998 274.680 C 230.559 275.078,229.782 275.343,229.271 275.270 C 228.760 275.197,228.040 275.270,227.671 275.434 C 227.302 275.597,226.874 275.746,226.720 275.765 C 226.566 275.784,226.215 276.025,225.940 276.300 C 225.665 276.575,224.792 276.800,224.000 276.800 C 223.208 276.800,222.344 277.016,222.080 277.280 C 221.816 277.544,221.600 277.621,221.600 277.451 C 221.600 277.282,221.317 277.426,220.971 277.771 C 220.385 278.358,219.151 278.589,217.500 278.421 C 217.115 278.382,216.800 278.525,216.800 278.739 C 216.800 278.954,216.485 279.081,216.100 279.021 C 215.715 278.962,215.277 279.104,215.127 279.336 C 214.977 279.568,213.672 279.834,212.227 279.926 C 210.782 280.018,209.600 280.263,209.600 280.470 C 209.600 280.678,209.431 280.743,209.225 280.615 C 209.018 280.488,208.699 280.652,208.515 280.981 C 208.290 281.382,207.458 281.603,205.990 281.652 C 204.785 281.692,203.440 281.946,203.000 282.215 C 202.560 282.484,201.210 282.825,200.000 282.972 C 196.143 283.441,195.914 283.492,195.632 283.948 C 195.480 284.194,194.106 284.485,192.578 284.595 C 188.931 284.857,187.600 285.160,187.598 285.732 C 187.597 286.045,186.441 286.236,184.098 286.308 C 182.174 286.368,180.540 286.594,180.466 286.811 C 180.392 287.028,180.167 287.103,179.966 286.979 C 179.765 286.855,179.600 286.943,179.600 287.176 C 179.600 287.415,178.768 287.602,177.700 287.603 C 174.140 287.610,171.632 288.069,171.415 288.755 C 171.247 289.283,170.539 289.408,167.505 289.443 C 162.265 289.503,161.606 289.576,160.323 290.240 C 159.553 290.638,157.479 290.887,153.943 291.004 C 149.839 291.140,148.607 291.311,148.252 291.793 C 147.884 292.293,146.540 292.433,141.000 292.548 C 133.601 292.701,132.903 292.786,132.399 293.601 C 131.809 294.556,88.026 294.324,87.322 293.361 C 86.905 292.791,86.129 292.625,83.500 292.543 C 81.685 292.486,79.988 292.431,79.729 292.420 C 79.469 292.409,78.968 292.111,78.615 291.758 C 78.063 291.206,76.085 290.899,72.529 290.812 C 72.269 290.805,71.786 290.528,71.454 290.196 C 71.122 289.865,69.743 289.477,68.389 289.336 C 66.835 289.173,65.849 288.871,65.713 288.516 C 65.594 288.207,65.256 288.047,64.961 288.160 C 64.667 288.273,64.319 288.193,64.189 287.983 C 64.059 287.772,63.398 287.600,62.720 287.600 C 62.043 287.600,61.288 287.329,61.044 286.998 C 60.800 286.667,59.845 286.347,58.921 286.286 C 57.998 286.225,57.098 286.017,56.921 285.824 C 56.737 285.622,56.856 285.617,57.200 285.813 C 57.717 286.107,57.724 286.060,57.251 285.477 C 56.949 285.105,56.298 284.800,55.805 284.800 C 55.312 284.800,54.456 284.445,53.904 284.010 C 53.351 283.576,52.314 283.176,51.598 283.121 C 50.868 283.066,50.100 282.709,49.852 282.311 C 49.607 281.920,49.134 281.600,48.800 281.600 C 48.466 281.600,47.968 281.240,47.693 280.800 C 47.418 280.360,46.844 280.000,46.416 280.000 C 45.989 280.000,45.482 279.719,45.290 279.375 C 45.098 279.031,44.684 278.705,44.370 278.650 C 43.112 278.431,42.000 277.926,42.000 277.573 C 42.000 276.953,40.964 277.154,40.316 277.900 C 39.516 278.821,39.089 280.684,39.605 281.003 C 39.829 281.142,39.916 281.412,39.798 281.603 C 39.680 281.794,39.826 282.097,40.122 282.275 C 40.618 282.575,41.140 283.527,41.067 284.000 C 41.022 284.292,42.358 285.877,44.300 287.838 C 45.235 288.781,46.000 289.724,46.000 289.932 C 46.000 290.141,46.315 290.286,46.700 290.256 C 47.148 290.220,47.360 290.441,47.289 290.870 C 47.229 291.238,47.542 291.794,47.987 292.106 C 48.431 292.417,48.676 292.791,48.531 292.936 C 48.386 293.081,48.614 293.200,49.038 293.200 C 49.463 293.200,50.146 293.647,50.555 294.192 C 50.965 294.738,51.486 295.071,51.712 294.931 C 51.938 294.791,52.005 294.869,51.859 295.104 C 51.714 295.340,52.226 295.922,53.000 296.400 C 53.773 296.878,54.300 297.437,54.173 297.644 C 54.045 297.851,54.114 297.970,54.327 297.910 C 54.539 297.849,55.087 298.226,55.544 298.747 C 56.002 299.268,56.629 299.598,56.938 299.479 C 57.267 299.353,57.713 299.663,58.017 300.232 C 58.480 301.097,59.138 301.410,60.130 301.237 C 60.311 301.206,60.358 301.344,60.234 301.545 C 59.906 302.075,60.915 302.785,62.140 302.887 C 62.723 302.935,63.200 303.189,63.200 303.452 C 63.200 303.954,66.449 305.689,67.779 305.897 C 68.208 305.964,68.881 306.365,69.274 306.788 C 69.670 307.213,70.350 307.487,70.795 307.401 C 71.332 307.297,71.600 307.460,71.600 307.890 C 71.600 308.244,71.711 308.422,71.848 308.286 C 71.984 308.150,72.357 308.300,72.676 308.619 C 72.996 308.939,73.874 309.200,74.629 309.200 C 75.581 309.200,76.000 309.383,76.000 309.800 C 76.000 310.130,76.135 310.371,76.300 310.336 C 76.465 310.302,76.918 310.412,77.306 310.582 C 77.694 310.751,78.387 310.792,78.846 310.672 C 79.304 310.552,79.580 310.553,79.459 310.675 C 78.940 311.193,80.557 312.086,82.112 312.141 C 83.175 312.178,83.987 312.450,84.305 312.875 C 84.583 313.246,85.123 313.561,85.505 313.576 C 87.708 313.659,89.859 314.148,90.259 314.656 C 90.546 315.021,91.793 315.330,93.591 315.481 C 95.171 315.613,96.677 315.934,96.937 316.194 C 97.483 316.740,97.664 316.776,101.371 317.061 C 102.895 317.179,104.515 317.516,104.971 317.810 C 105.499 318.151,107.682 318.427,110.977 318.570 C 113.824 318.693,116.335 318.975,116.557 319.197 C 116.778 319.418,117.869 319.573,118.980 319.540 L 121.000 319.480 119.200 319.187 L 117.400 318.894 119.400 318.947 C 120.782 318.984,121.368 319.157,121.298 319.507 C 121.133 320.320,156.749 320.198,157.061 319.384 C 157.229 318.949,157.911 318.817,159.743 318.867 L 162.200 318.934 159.800 319.200 L 157.400 319.466 160.276 319.533 C 161.858 319.570,163.251 319.441,163.371 319.246 C 163.492 319.052,166.877 318.760,170.895 318.599 C 175.020 318.433,178.311 318.130,178.454 317.903 C 178.594 317.681,181.204 317.341,184.254 317.147 C 190.231 316.765,190.988 316.628,190.596 315.993 C 190.455 315.766,190.489 315.606,190.670 315.637 C 190.852 315.669,191.090 315.668,191.200 315.634 C 191.310 315.601,192.930 315.503,194.800 315.415 C 199.058 315.216,199.201 315.191,200.018 314.492 C 200.476 314.100,201.859 313.887,204.353 313.824 C 207.360 313.747,208.111 313.601,208.547 313.005 C 208.958 312.442,209.717 312.257,211.939 312.177 C 215.361 312.053,216.000 311.959,216.000 311.577 C 216.000 311.156,217.880 310.744,220.338 310.627 C 221.514 310.570,222.594 310.341,222.738 310.116 C 223.112 309.534,224.384 309.198,226.754 309.056 C 228.124 308.975,228.981 308.705,229.312 308.253 C 229.676 307.756,230.428 307.565,232.105 307.545 C 233.367 307.530,234.400 307.345,234.400 307.135 C 234.400 306.925,234.560 306.851,234.755 306.972 C 234.950 307.093,235.302 306.959,235.538 306.675 C 235.774 306.391,236.703 306.115,237.603 306.062 C 239.422 305.955,241.199 305.386,241.202 304.910 C 241.203 304.739,242.041 304.551,243.064 304.492 C 244.087 304.432,245.121 304.137,245.362 303.836 C 245.801 303.287,248.529 302.585,249.540 302.760 C 249.873 302.818,249.965 302.666,249.778 302.365 C 249.576 302.037,249.643 301.980,249.983 302.189 C 250.268 302.366,250.619 302.293,250.785 302.024 C 250.948 301.760,251.873 301.454,252.841 301.343 C 253.808 301.232,254.884 300.885,255.231 300.571 C 255.579 300.257,256.333 300.000,256.908 300.000 C 257.483 300.000,258.066 299.817,258.204 299.593 C 258.342 299.370,258.624 299.291,258.831 299.419 C 259.037 299.547,259.471 299.386,259.795 299.062 C 260.119 298.738,261.109 298.351,261.994 298.201 C 262.880 298.051,263.828 297.630,264.102 297.264 C 264.409 296.855,265.205 296.587,266.178 296.567 C 267.046 296.548,267.826 296.322,267.912 296.064 C 267.998 295.806,268.233 295.697,268.434 295.821 C 268.635 295.945,268.800 295.880,268.800 295.675 C 268.800 295.470,269.520 295.187,270.400 295.046 C 271.293 294.904,272.000 294.566,272.000 294.283 C 272.000 294.003,272.428 293.739,272.952 293.696 C 274.281 293.586,276.000 292.890,276.000 292.462 C 276.000 292.265,276.817 292.012,277.816 291.899 C 278.815 291.787,279.954 291.403,280.348 291.047 C 280.741 290.691,281.336 290.400,281.670 290.400 C 282.004 290.400,282.693 290.040,283.200 289.600 C 283.707 289.160,284.539 288.800,285.047 288.800 C 285.561 288.800,286.161 288.446,286.398 288.004 C 286.632 287.566,286.954 287.227,287.112 287.251 C 288.107 287.401,289.209 287.138,289.000 286.800 C 288.864 286.580,289.033 286.400,289.376 286.400 C 289.719 286.400,290.000 286.265,290.001 286.100 C 290.001 285.935,290.586 285.760,291.301 285.712 C 292.015 285.663,292.876 285.303,293.214 284.912 C 293.789 284.245,294.226 284.041,295.532 283.830 C 295.825 283.782,296.185 283.556,296.332 283.326 C 296.479 283.096,297.050 282.769,297.600 282.599 C 298.150 282.429,299.029 281.955,299.554 281.545 C 300.079 281.135,300.770 280.800,301.091 280.800 C 301.411 280.800,302.131 280.440,302.691 280.000 C 303.250 279.560,303.954 279.200,304.254 279.200 C 304.554 279.200,304.800 279.032,304.800 278.827 C 304.800 278.622,305.159 278.340,305.598 278.201 C 306.036 278.062,306.621 277.728,306.898 277.459 C 307.174 277.190,308.075 276.653,308.900 276.266 C 309.725 275.879,310.400 275.391,310.400 275.181 C 310.400 274.972,310.760 274.800,311.200 274.800 C 311.640 274.800,312.000 274.590,312.000 274.333 C 312.000 274.077,312.109 273.976,312.243 274.109 C 312.535 274.402,313.187 273.912,315.322 271.800 C 316.211 270.920,316.804 270.470,316.640 270.800 C 316.463 271.156,316.574 271.115,316.914 270.700 C 317.230 270.315,317.595 270.000,317.726 270.000 C 317.857 270.000,318.414 269.550,318.964 269.000 C 319.514 268.450,319.860 268.000,319.733 268.000 C 319.606 268.000,319.720 267.737,319.986 267.416 C 320.535 266.755,320.160 264.254,319.567 264.620 C 319.365 264.745,319.200 264.670,319.200 264.454 C 319.200 263.803,317.133 261.556,316.674 261.709 C 316.440 261.787,315.517 261.109,314.624 260.203 C 313.731 259.297,312.862 258.524,312.693 258.485 C 312.524 258.446,311.933 258.006,311.379 257.507 C 309.073 255.428,308.785 255.200,308.472 255.200 C 308.292 255.200,307.747 254.743,307.261 254.184 C 306.774 253.625,306.202 253.275,305.988 253.407 C 305.775 253.539,305.600 253.387,305.600 253.070 C 305.600 252.752,305.195 252.215,304.700 251.876 C 304.205 251.538,303.277 250.797,302.638 250.230 C 301.574 249.287,301.290 249.151,300.549 249.225 C 300.412 249.239,300.092 248.834,299.839 248.325 C 299.209 247.055,295.081 246.771,293.576 247.893 " stroke="none" fill="#e0e0e0" fill-rule="evenodd"></path><path id="path1" d="M207.200 30.800 C 206.760 31.240,206.226 31.600,206.014 31.600 C 205.802 31.600,205.435 31.960,205.200 32.400 C 204.965 32.840,204.511 33.200,204.191 33.200 C 203.872 33.200,202.747 34.055,201.692 35.100 C 200.636 36.145,198.834 37.712,197.687 38.582 C 196.539 39.452,195.600 40.286,195.600 40.434 C 195.600 40.582,195.073 40.921,194.429 41.188 C 193.785 41.455,193.160 41.927,193.041 42.237 C 192.922 42.546,192.549 42.800,192.213 42.800 C 191.876 42.800,191.600 42.943,191.600 43.118 C 191.600 43.538,188.034 46.245,186.417 47.051 C 185.715 47.401,185.045 47.938,184.928 48.244 C 184.810 48.550,184.458 48.800,184.145 48.800 C 183.831 48.800,183.476 49.059,183.354 49.376 C 183.233 49.692,182.627 50.062,182.008 50.198 C 181.389 50.334,180.566 50.795,180.179 51.223 C 179.793 51.650,179.271 52.000,179.019 52.000 C 178.548 52.000,177.267 52.877,175.953 54.100 C 175.539 54.485,174.954 54.800,174.654 54.800 C 174.354 54.800,173.679 55.127,173.154 55.527 C 172.629 55.927,171.615 56.489,170.900 56.776 C 170.185 57.062,169.600 57.433,169.600 57.599 C 169.600 57.764,169.082 58.004,168.448 58.130 C 167.815 58.257,167.050 58.602,166.748 58.897 C 166.447 59.192,165.615 59.673,164.900 59.965 C 164.185 60.258,163.600 60.655,163.600 60.849 C 163.600 61.042,163.285 61.201,162.900 61.201 C 162.515 61.202,161.611 61.562,160.890 62.001 C 160.170 62.441,159.339 62.800,159.044 62.800 C 158.749 62.800,158.050 63.160,157.491 63.600 C 156.931 64.040,156.121 64.400,155.691 64.400 C 155.260 64.400,154.450 64.760,153.891 65.200 C 153.331 65.640,152.519 66.000,152.086 66.000 C 151.653 66.000,151.093 66.247,150.842 66.549 C 150.591 66.852,149.508 67.215,148.435 67.358 C 147.362 67.500,146.282 67.860,146.035 68.158 C 145.787 68.456,144.828 68.821,143.903 68.969 C 142.978 69.117,141.946 69.476,141.610 69.766 C 141.275 70.057,140.221 70.393,139.269 70.514 C 138.317 70.634,137.223 71.017,136.837 71.366 C 136.452 71.715,135.483 72.000,134.684 72.000 C 133.884 72.000,132.278 72.345,131.115 72.766 C 129.952 73.187,127.783 73.651,126.296 73.798 C 124.809 73.944,123.356 74.302,123.066 74.591 C 122.727 74.930,121.175 75.168,118.711 75.259 C 115.767 75.367,114.704 75.562,114.110 76.100 C 112.844 77.246,91.181 77.157,89.709 76.000 C 89.087 75.511,88.086 75.200,87.134 75.200 C 86.130 75.200,85.494 74.990,85.349 74.611 C 85.224 74.287,84.496 73.904,83.729 73.760 C 82.963 73.617,82.247 73.268,82.139 72.986 C 82.031 72.703,81.472 72.354,80.898 72.210 C 79.642 71.895,76.507 68.816,75.184 66.600 C 74.659 65.720,73.998 64.762,73.715 64.471 C 73.432 64.181,73.200 63.542,73.200 63.051 C 73.200 62.561,72.975 61.935,72.700 61.661 C 71.949 60.911,71.853 51.626,72.580 50.138 C 74.636 45.931,72.630 40.569,69.795 42.696 C 68.980 43.307,66.000 47.124,66.000 47.556 C 66.000 47.800,65.865 48.001,65.700 48.003 C 65.356 48.007,64.400 49.931,64.400 50.619 C 64.400 50.871,64.040 51.493,63.600 52.000 C 63.160 52.507,62.799 53.210,62.797 53.561 C 62.796 53.913,62.437 54.740,62.000 55.400 C 61.563 56.060,61.204 56.946,61.203 57.369 C 61.201 57.791,60.915 58.452,60.566 58.837 C 60.217 59.223,59.834 60.317,59.714 61.269 C 59.593 62.221,59.222 63.314,58.888 63.697 C 58.504 64.139,58.167 65.749,57.969 68.097 C 57.797 70.134,57.375 72.340,57.031 73.000 C 56.130 74.726,56.174 79.371,57.100 80.312 C 57.572 80.792,57.839 81.801,57.920 83.412 C 58.045 85.911,58.650 88.000,59.249 88.000 C 59.442 88.000,59.600 88.287,59.600 88.637 C 59.600 90.518,67.576 98.400,69.480 98.400 C 69.699 98.400,70.293 98.760,70.800 99.200 C 71.307 99.640,72.216 100.000,72.818 100.000 C 73.421 100.000,74.014 100.260,74.136 100.578 C 74.258 100.896,75.042 101.283,75.879 101.438 C 76.716 101.594,77.765 101.958,78.211 102.248 C 78.657 102.538,80.457 102.955,82.211 103.175 C 83.965 103.395,86.384 103.850,87.587 104.187 C 91.822 105.373,114.295 104.934,117.400 103.605 C 117.840 103.417,120.069 103.164,122.354 103.045 C 125.067 102.902,126.731 102.633,127.154 102.266 C 127.511 101.956,129.113 101.602,130.740 101.473 C 132.357 101.345,134.105 100.961,134.626 100.620 C 135.146 100.279,136.364 100.000,137.332 100.000 C 138.436 100.000,139.448 99.724,140.046 99.259 C 140.637 98.800,141.963 98.433,143.530 98.294 C 144.921 98.171,146.361 97.807,146.730 97.484 C 147.098 97.162,148.347 96.812,149.504 96.707 C 150.661 96.602,151.935 96.220,152.336 95.858 C 152.736 95.496,153.610 95.200,154.278 95.200 C 154.946 95.200,155.950 94.840,156.509 94.400 C 157.069 93.960,157.980 93.600,158.535 93.600 C 159.089 93.600,159.798 93.345,160.109 93.034 C 160.420 92.723,161.558 92.338,162.638 92.180 C 163.717 92.022,165.078 91.557,165.662 91.146 C 166.246 90.736,167.117 90.400,167.599 90.400 C 168.080 90.400,168.931 90.040,169.491 89.600 C 170.050 89.160,170.912 88.800,171.405 88.800 C 171.898 88.800,172.526 88.530,172.800 88.200 C 173.074 87.870,173.591 87.594,173.949 87.587 C 174.307 87.581,175.500 87.132,176.600 86.591 C 177.700 86.050,178.803 85.606,179.051 85.604 C 179.299 85.602,179.722 85.335,179.991 85.011 C 180.260 84.686,181.086 84.308,181.826 84.169 C 182.566 84.030,183.370 83.677,183.613 83.384 C 183.856 83.091,184.570 82.738,185.200 82.600 C 185.830 82.462,186.550 82.102,186.800 81.800 C 187.050 81.498,187.783 81.136,188.428 80.994 C 189.072 80.852,189.600 80.569,189.600 80.365 C 189.600 80.161,190.320 79.705,191.200 79.353 C 192.080 79.001,192.800 78.553,192.800 78.357 C 192.800 78.160,193.072 78.000,193.404 78.000 C 193.736 78.000,194.316 77.640,194.693 77.200 C 195.070 76.760,195.674 76.400,196.035 76.400 C 196.396 76.400,197.123 76.085,197.651 75.700 C 199.175 74.587,200.107 74.026,201.500 73.387 C 202.215 73.058,202.800 72.614,202.800 72.400 C 202.800 72.186,203.385 71.742,204.100 71.413 C 205.606 70.722,206.808 69.978,207.391 69.379 C 207.616 69.148,208.610 68.431,209.600 67.787 C 210.590 67.143,212.118 65.937,212.996 65.108 C 213.874 64.278,214.728 63.600,214.895 63.600 C 215.062 63.600,215.941 62.880,216.848 62.000 C 217.755 61.120,218.623 60.400,218.777 60.400 C 219.177 60.400,223.200 56.306,223.200 55.899 C 223.200 55.713,223.811 54.931,224.559 54.161 C 225.890 52.791,227.429 49.220,226.866 48.808 C 226.710 48.694,226.290 48.141,225.934 47.580 C 225.578 47.019,224.462 45.939,223.455 45.180 C 222.449 44.421,221.619 43.501,221.612 43.136 C 221.606 42.771,219.485 40.315,216.900 37.679 C 214.315 35.043,212.020 32.682,211.800 32.434 C 209.638 29.993,208.435 29.565,207.200 30.800 M363.380 72.677 C 362.556 73.502,362.747 78.372,363.646 79.456 C 364.535 80.526,364.447 100.222,363.547 101.600 C 363.188 102.150,362.784 103.881,362.649 105.446 C 362.515 107.011,362.133 108.940,361.802 109.733 C 361.471 110.526,361.200 111.626,361.200 112.177 C 361.200 112.729,360.841 113.770,360.401 114.490 C 359.962 115.211,359.602 116.273,359.601 116.851 C 359.601 117.429,359.335 118.122,359.011 118.391 C 358.686 118.660,358.304 119.537,358.160 120.340 C 358.016 121.143,357.665 122.070,357.380 122.400 C 357.096 122.730,356.732 123.521,356.573 124.158 C 356.414 124.795,355.950 125.650,355.542 126.058 C 355.134 126.466,354.800 127.120,354.800 127.511 C 354.800 127.902,354.440 128.530,354.000 128.907 C 353.560 129.284,353.200 129.849,353.200 130.163 C 353.200 130.477,353.065 130.793,352.900 130.867 C 352.735 130.940,352.278 131.630,351.884 132.400 C 350.309 135.477,349.513 136.709,348.100 138.256 C 347.605 138.798,347.200 139.410,347.200 139.616 C 347.200 139.977,346.719 140.636,345.000 142.633 C 344.560 143.144,343.840 144.039,343.400 144.623 C 342.960 145.207,341.925 146.392,341.100 147.258 C 340.275 148.123,339.600 148.975,339.600 149.151 C 339.600 149.474,326.449 162.800,326.131 162.800 C 325.789 162.800,319.391 168.102,319.080 168.643 C 318.904 168.949,318.589 169.200,318.380 169.200 C 318.171 169.200,317.685 169.478,317.300 169.817 C 316.915 170.157,315.520 171.278,314.200 172.309 C 312.880 173.339,311.620 174.326,311.400 174.502 C 311.180 174.677,310.100 175.397,309.000 176.101 C 307.900 176.805,306.762 177.610,306.471 177.890 C 306.181 178.171,305.792 178.400,305.607 178.400 C 305.423 178.400,304.393 179.075,303.318 179.900 C 302.244 180.725,300.968 181.625,300.482 181.900 C 298.227 183.178,297.820 183.445,297.134 184.100 C 296.730 184.485,296.158 184.800,295.862 184.800 C 295.566 184.800,294.998 185.160,294.600 185.600 C 294.202 186.040,293.675 186.400,293.429 186.400 C 293.184 186.400,291.907 187.115,290.591 187.989 C 289.276 188.862,288.063 189.582,287.896 189.589 C 287.729 189.595,286.695 190.230,285.600 191.000 C 284.505 191.770,283.409 192.400,283.166 192.400 C 282.923 192.400,282.246 192.736,281.662 193.148 C 281.078 193.559,280.211 194.016,279.736 194.163 C 279.261 194.310,278.654 194.694,278.387 195.015 C 278.120 195.337,277.562 195.600,277.147 195.600 C 276.732 195.600,276.084 195.960,275.707 196.400 C 275.330 196.840,274.640 197.200,274.173 197.200 C 273.706 197.200,272.998 197.560,272.600 198.000 C 272.202 198.440,271.476 198.800,270.987 198.800 C 270.498 198.800,269.883 199.058,269.621 199.374 C 269.359 199.690,268.630 200.062,268.000 200.200 C 267.370 200.338,266.650 200.698,266.400 201.000 C 266.150 201.302,265.430 201.662,264.800 201.800 C 264.170 201.938,263.441 202.310,263.179 202.626 C 262.917 202.942,262.340 203.200,261.898 203.200 C 261.456 203.200,260.533 203.539,259.847 203.954 C 259.161 204.369,258.150 204.841,257.600 205.002 C 257.050 205.163,256.330 205.521,256.000 205.797 C 255.670 206.073,254.725 206.516,253.900 206.780 C 253.075 207.045,252.400 207.428,252.400 207.631 C 252.400 207.834,252.031 208.000,251.579 208.000 C 251.128 208.000,250.093 208.353,249.279 208.785 C 248.466 209.216,247.318 209.667,246.728 209.785 C 246.138 209.904,245.418 210.240,245.126 210.531 C 244.835 210.822,244.002 211.180,243.275 211.325 C 242.548 211.470,241.681 211.862,241.348 212.195 C 241.015 212.528,240.261 212.804,239.671 212.809 C 239.082 212.814,238.150 213.170,237.600 213.600 C 237.050 214.030,236.088 214.386,235.463 214.391 C 234.838 214.396,233.869 214.760,233.309 215.200 C 232.750 215.640,231.906 216.000,231.435 216.000 C 230.964 216.000,230.223 216.245,229.789 216.545 C 229.355 216.845,228.147 217.215,227.105 217.369 C 226.062 217.522,224.963 217.894,224.662 218.195 C 224.361 218.496,223.472 218.863,222.685 219.010 C 221.899 219.158,221.159 219.531,221.040 219.839 C 220.916 220.162,220.268 220.401,219.513 220.402 C 217.790 220.405,215.200 221.136,215.200 221.619 C 215.200 221.828,214.698 222.000,214.085 222.000 C 213.471 222.000,212.263 222.360,211.400 222.800 C 210.537 223.240,209.446 223.600,208.975 223.600 C 207.786 223.600,205.600 224.403,205.600 224.839 C 205.600 225.038,204.925 225.201,204.100 225.202 C 203.275 225.204,202.060 225.500,201.400 225.860 C 200.740 226.220,199.239 226.655,198.064 226.828 C 196.890 227.000,195.615 227.424,195.233 227.770 C 194.819 228.145,193.815 228.400,192.758 228.400 C 191.779 228.400,190.598 228.666,190.134 228.991 C 189.670 229.316,188.235 229.698,186.945 229.838 C 185.655 229.979,184.212 230.336,183.738 230.631 C 183.265 230.926,181.503 231.339,179.824 231.547 C 178.145 231.756,176.553 232.098,176.286 232.309 C 176.018 232.519,174.488 232.796,172.885 232.924 C 171.283 233.051,169.410 233.436,168.724 233.778 C 168.038 234.120,166.794 234.400,165.958 234.400 C 164.000 234.400,160.400 235.171,160.400 235.590 C 160.400 235.768,158.314 235.980,155.765 236.061 C 151.950 236.182,151.040 236.330,150.625 236.898 C 150.348 237.277,150.017 237.484,149.890 237.357 C 149.444 236.911,143.563 237.694,142.980 238.277 C 142.047 239.211,142.125 265.667,143.063 266.606 C 144.053 267.596,163.525 267.352,164.659 266.335 C 165.226 265.827,166.392 265.639,169.630 265.535 C 173.001 265.427,174.001 265.258,174.558 264.700 C 175.090 264.167,175.923 264.000,178.041 264.000 C 179.773 264.000,181.388 263.749,182.313 263.336 C 183.131 262.970,185.190 262.553,186.889 262.408 C 188.919 262.234,190.233 261.913,190.721 261.472 C 191.209 261.030,192.152 260.800,193.478 260.800 C 194.886 260.800,195.798 260.559,196.509 260.000 C 197.210 259.449,198.132 259.200,199.474 259.200 C 200.564 259.200,201.802 258.934,202.284 258.596 C 202.759 258.264,204.014 257.882,205.073 257.748 C 206.133 257.614,207.404 257.253,207.897 256.945 C 208.390 256.637,209.619 256.272,210.627 256.134 C 211.635 255.996,212.673 255.670,212.934 255.409 C 213.194 255.148,214.293 254.814,215.375 254.665 C 216.456 254.517,217.625 254.150,217.971 253.849 C 218.317 253.548,219.320 253.173,220.200 253.017 C 221.080 252.860,222.070 252.501,222.400 252.219 C 222.730 251.937,223.805 251.584,224.790 251.434 C 225.774 251.284,226.854 250.925,227.190 250.635 C 227.525 250.345,228.497 250.002,229.350 249.871 C 230.202 249.741,231.192 249.379,231.550 249.068 C 231.907 248.756,232.858 248.384,233.661 248.240 C 234.465 248.096,235.224 247.713,235.349 247.389 C 235.473 247.065,236.022 246.800,236.569 246.800 C 237.731 246.800,239.600 246.021,239.600 245.536 C 239.600 245.351,240.232 245.200,241.004 245.200 C 241.913 245.200,242.649 244.918,243.093 244.400 C 243.470 243.960,244.256 243.600,244.840 243.600 C 245.424 243.600,246.110 243.350,246.363 243.044 C 246.617 242.739,247.604 242.293,248.556 242.053 C 249.509 241.813,250.515 241.343,250.793 241.008 C 251.071 240.674,251.788 240.400,252.387 240.400 C 252.986 240.400,253.802 240.040,254.200 239.600 C 254.598 239.160,255.324 238.800,255.813 238.800 C 256.302 238.800,256.910 238.549,257.165 238.242 C 257.420 237.935,258.235 237.570,258.976 237.431 C 259.717 237.292,260.424 236.913,260.549 236.589 C 260.673 236.265,261.141 236.000,261.587 236.000 C 262.034 236.000,262.735 235.665,263.145 235.255 C 263.555 234.845,264.527 234.390,265.305 234.244 C 266.083 234.098,266.930 233.725,267.187 233.415 C 267.445 233.105,268.170 232.738,268.800 232.600 C 269.430 232.462,270.159 232.090,270.421 231.774 C 270.683 231.458,271.148 231.200,271.453 231.200 C 271.758 231.200,272.316 230.840,272.693 230.400 C 273.070 229.960,273.674 229.600,274.035 229.600 C 274.396 229.600,275.150 229.240,275.709 228.800 C 276.269 228.360,277.013 228.000,277.363 228.000 C 277.713 228.000,278.360 227.640,278.800 227.200 C 279.240 226.760,279.846 226.400,280.146 226.400 C 280.446 226.400,281.150 226.040,281.709 225.600 C 282.269 225.160,282.883 224.800,283.074 224.800 C 283.266 224.800,283.730 224.440,284.107 224.000 C 284.484 223.560,285.126 223.200,285.534 223.200 C 285.942 223.200,286.602 222.840,287.000 222.400 C 287.398 221.960,287.983 221.600,288.299 221.600 C 288.615 221.600,289.331 221.240,289.891 220.800 C 290.450 220.360,291.126 220.000,291.392 220.000 C 291.658 220.000,292.202 219.640,292.600 219.200 C 292.998 218.760,293.572 218.400,293.875 218.400 C 294.177 218.400,294.529 218.130,294.655 217.800 C 294.782 217.470,295.181 217.197,295.543 217.194 C 295.904 217.191,297.100 216.550,298.200 215.771 C 299.300 214.991,300.694 214.049,301.297 213.677 C 301.901 213.305,302.396 212.865,302.397 212.700 C 302.399 212.535,302.668 212.400,302.997 212.400 C 303.325 212.400,303.818 212.040,304.093 211.600 C 304.368 211.160,304.894 210.800,305.262 210.800 C 305.914 210.800,307.418 209.716,308.729 208.300 C 309.086 207.915,309.563 207.588,309.789 207.573 C 310.015 207.559,311.010 206.930,312.000 206.175 C 312.990 205.421,314.160 204.643,314.600 204.447 C 315.040 204.250,315.989 203.440,316.710 202.645 C 317.430 201.850,318.240 201.198,318.510 201.195 C 318.779 201.192,319.759 200.485,320.687 199.623 C 321.614 198.762,323.189 197.495,324.187 196.809 C 325.184 196.123,326.001 195.435,326.003 195.281 C 326.004 195.126,326.666 194.550,327.473 194.000 C 330.396 192.009,352.203 169.838,352.792 168.258 C 352.906 167.951,353.674 166.913,354.497 165.950 C 355.320 164.988,356.220 163.935,356.497 163.610 C 357.357 162.603,359.185 159.815,359.193 159.500 C 359.197 159.335,359.560 158.840,360.000 158.400 C 360.440 157.960,360.800 157.283,360.800 156.896 C 360.800 156.509,361.160 155.968,361.600 155.693 C 362.040 155.418,362.400 154.925,362.400 154.597 C 362.400 154.268,362.562 154.000,362.761 154.000 C 362.959 154.000,363.305 153.474,363.529 152.832 C 363.753 152.190,364.310 151.290,364.768 150.832 C 365.226 150.374,365.600 149.640,365.600 149.200 C 365.600 148.760,365.960 148.040,366.400 147.600 C 366.840 147.160,367.200 146.350,367.200 145.800 C 367.200 145.250,367.365 144.800,367.567 144.800 C 368.041 144.800,370.396 139.974,370.413 138.968 C 370.420 138.546,370.690 137.851,371.013 137.424 C 371.336 136.996,371.600 136.386,371.600 136.067 C 371.600 135.749,371.949 134.748,372.375 133.844 C 372.801 132.940,373.256 131.543,373.385 130.740 C 373.515 129.937,373.886 129.060,374.211 128.791 C 374.535 128.522,374.800 127.710,374.800 126.987 C 374.800 126.263,375.158 124.530,375.595 123.136 C 376.144 121.385,376.391 119.462,376.395 116.924 C 376.398 114.823,376.578 113.137,376.815 112.991 C 377.339 112.667,377.291 98.800,376.766 98.800 C 376.565 98.800,376.400 97.446,376.400 95.790 C 376.400 93.805,376.127 92.005,375.600 90.504 C 375.160 89.252,374.800 87.800,374.800 87.277 C 374.800 86.754,374.440 85.869,374.000 85.309 C 373.560 84.750,373.200 83.888,373.200 83.395 C 373.200 82.902,372.948 82.289,372.639 82.033 C 372.331 81.777,371.963 81.080,371.823 80.484 C 371.489 79.072,369.935 75.919,369.318 75.403 C 369.053 75.181,368.651 74.502,368.425 73.893 C 367.759 72.098,364.697 71.360,363.380 72.677 " stroke="none" fill="#3bdbc0" fill-rule="evenodd"></path><path id="path2" d="M269.600 0.753 C 269.600 0.948,269.915 1.218,270.300 1.354 C 270.685 1.489,271.270 1.715,271.600 1.855 C 271.930 1.994,271.722 1.724,271.137 1.254 C 269.985 0.329,269.600 0.203,269.600 0.753 M260.400 2.200 C 260.674 2.530,261.050 2.800,261.236 2.800 C 261.423 2.800,261.471 2.530,261.345 2.200 C 261.218 1.870,260.842 1.600,260.508 1.600 C 260.015 1.600,259.995 1.712,260.400 2.200 M262.013 2.651 C 262.019 2.843,262.514 3.352,263.113 3.781 C 263.793 4.270,264.014 4.331,263.703 3.945 C 263.430 3.605,263.340 3.163,263.503 2.963 C 263.667 2.763,263.637 2.733,263.437 2.897 C 263.237 3.060,262.832 2.993,262.537 2.748 C 262.242 2.503,262.006 2.459,262.013 2.651 M264.413 4.300 C 264.419 4.465,264.914 4.946,265.513 5.368 L 266.600 6.136 265.630 5.068 C 264.611 3.946,264.392 3.807,264.413 4.300 M277.846 5.672 C 278.481 6.151,279.225 6.713,279.500 6.921 C 279.775 7.128,279.999 7.141,279.997 6.949 C 279.994 6.566,277.549 4.800,277.021 4.800 C 276.840 4.800,277.211 5.192,277.846 5.672 M282.800 8.953 C 282.800 9.258,283.177 9.605,283.637 9.726 C 284.440 9.936,284.445 9.913,283.775 9.172 C 282.943 8.254,282.800 8.221,282.800 8.953 M288.013 13.097 C 288.037 13.665,289.078 14.788,289.340 14.527 C 289.483 14.384,289.600 14.477,289.600 14.733 C 289.600 14.990,289.782 15.200,290.003 15.200 C 290.559 15.200,289.675 13.839,288.741 13.256 C 288.333 13.001,288.006 12.930,288.013 13.097 M291.546 16.867 C 291.723 17.344,292.167 17.778,292.534 17.831 C 293.368 17.954,293.365 17.912,292.453 16.861 C 291.498 15.761,291.138 15.763,291.546 16.867 M277.200 17.102 C 277.200 17.322,277.470 17.726,277.800 18.000 C 278.135 18.278,278.400 18.321,278.400 18.098 C 278.400 17.878,278.130 17.474,277.800 17.200 C 277.465 16.922,277.200 16.879,277.200 17.102 M294.260 19.503 C 294.122 19.727,294.275 20.130,294.600 20.400 C 294.925 20.670,295.101 21.037,294.990 21.217 C 294.879 21.396,295.132 21.651,295.551 21.785 C 295.971 21.918,296.535 22.561,296.806 23.213 C 297.076 23.866,297.470 24.400,297.681 24.400 C 298.093 24.400,296.588 21.665,295.810 21.000 C 295.552 20.780,295.155 20.262,294.926 19.849 C 294.686 19.414,294.405 19.269,294.260 19.503 M279.205 20.409 C 279.701 21.336,280.000 21.424,280.000 20.643 C 280.000 20.336,279.726 19.980,279.391 19.852 C 278.894 19.661,278.859 19.764,279.205 20.409 M280.000 22.526 C 280.000 22.678,280.360 23.475,280.800 24.296 C 281.462 25.531,281.600 25.631,281.600 24.877 C 281.600 24.376,281.240 23.580,280.800 23.108 C 280.360 22.636,280.000 22.374,280.000 22.526 M298.400 26.351 C 298.400 26.544,298.670 26.926,299.000 27.200 C 299.330 27.474,299.600 27.976,299.600 28.316 C 299.600 28.655,299.714 28.819,299.854 28.679 C 300.181 28.352,299.214 26.000,298.751 26.000 C 298.558 26.000,298.400 26.158,298.400 26.351 M281.813 29.100 C 282.166 31.222,282.317 31.600,282.811 31.600 C 283.051 31.600,283.120 31.394,282.964 31.142 C 282.809 30.891,282.696 30.167,282.714 29.535 C 282.735 28.793,282.591 28.482,282.305 28.658 C 282.021 28.834,281.955 28.695,282.119 28.266 C 282.260 27.900,282.192 27.600,281.969 27.600 C 281.723 27.600,281.662 28.189,281.813 29.100 M300.000 29.600 C 300.000 29.820,300.191 30.000,300.424 30.000 C 300.657 30.000,300.736 30.180,300.600 30.400 C 300.464 30.620,300.543 30.800,300.776 30.800 C 301.267 30.800,301.287 30.693,300.957 29.833 C 300.689 29.135,300.000 28.967,300.000 29.600 M282.204 33.414 C 281.563 36.510,281.556 36.653,282.084 35.800 C 282.356 35.360,282.590 34.910,282.604 34.800 C 282.617 34.690,282.844 34.213,283.107 33.740 C 283.496 33.040,283.476 32.838,282.997 32.654 C 282.601 32.502,282.341 32.751,282.204 33.414 M301.513 34.250 C 301.222 34.771,301.962 37.200,302.411 37.200 C 302.888 37.200,302.899 37.318,302.248 35.450 C 301.952 34.598,301.621 34.058,301.513 34.250 M302.954 42.400 C 302.954 45.150,303.018 46.275,303.096 44.900 C 303.174 43.525,303.174 41.275,303.096 39.900 C 303.018 38.525,302.954 39.650,302.954 42.400 M280.958 39.800 C 280.632 40.841,280.637 41.200,280.978 41.200 C 281.230 41.200,281.479 40.570,281.531 39.800 C 281.583 39.030,281.573 38.400,281.510 38.400 C 281.447 38.400,281.199 39.030,280.958 39.800 M277.482 47.331 C 276.566 48.728,276.622 48.978,277.625 47.975 C 278.079 47.521,278.386 46.957,278.307 46.720 C 278.228 46.484,277.857 46.759,277.482 47.331 M302.284 48.600 C 302.127 49.040,301.888 49.670,301.752 50.000 C 301.551 50.486,301.635 50.476,302.190 49.947 C 302.568 49.588,302.807 48.958,302.722 48.547 C 302.576 47.842,302.552 47.845,302.284 48.600 M301.102 53.400 C 300.997 53.950,301.066 54.400,301.255 54.400 C 301.445 54.400,301.600 53.950,301.600 53.400 C 301.600 52.850,301.531 52.400,301.447 52.400 C 301.362 52.400,301.207 52.850,301.102 53.400 M272.271 54.988 C 271.458 56.054,270.875 57.009,270.977 57.110 C 271.192 57.325,272.400 56.192,272.400 55.775 C 272.400 55.621,272.778 55.166,273.240 54.766 C 273.701 54.365,274.005 53.816,273.915 53.544 C 273.824 53.273,273.085 53.923,272.271 54.988 M300.278 56.023 C 300.102 56.698,300.165 56.761,300.631 56.374 C 301.268 55.846,301.386 55.200,300.847 55.200 C 300.652 55.200,300.396 55.570,300.278 56.023 M298.800 59.400 C 298.517 59.741,298.376 60.109,298.486 60.219 C 298.596 60.329,298.917 60.141,299.200 59.800 C 299.483 59.459,299.624 59.091,299.514 58.981 C 299.404 58.871,299.083 59.059,298.800 59.400 M263.683 64.662 C 262.427 65.906,261.730 66.806,262.133 66.662 C 262.536 66.518,262.941 66.400,263.033 66.400 C 263.125 66.400,263.200 66.136,263.200 65.813 C 263.200 65.490,263.695 64.957,264.300 64.629 C 264.905 64.301,265.245 64.025,265.056 64.016 C 264.866 64.007,265.136 63.646,265.656 63.213 C 266.175 62.781,266.457 62.421,266.283 62.413 C 266.108 62.406,264.938 63.418,263.683 64.662 M295.200 66.200 C 294.795 66.688,294.815 66.800,295.308 66.800 C 295.642 66.800,296.018 66.530,296.145 66.200 C 296.271 65.870,296.223 65.600,296.036 65.600 C 295.850 65.600,295.474 65.870,295.200 66.200 M255.864 71.529 C 254.895 72.599,255.051 72.970,256.071 72.020 C 256.550 71.574,256.849 71.115,256.735 71.002 C 256.621 70.888,256.230 71.125,255.864 71.529 M253.702 73.185 C 253.298 73.832,253.311 73.932,253.775 73.754 C 254.380 73.522,254.967 72.400,254.484 72.400 C 254.323 72.400,253.972 72.753,253.702 73.185 M288.865 75.100 C 288.245 75.705,287.613 76.537,287.462 76.949 C 287.206 77.647,288.347 76.599,289.949 74.663 C 290.826 73.604,290.099 73.897,288.865 75.100 M250.000 76.002 C 249.450 76.438,248.566 77.127,248.035 77.533 C 247.366 78.046,247.216 78.363,247.545 78.566 C 247.806 78.727,247.970 78.711,247.910 78.530 C 247.849 78.348,247.941 78.161,248.114 78.114 C 248.287 78.067,248.707 77.750,249.047 77.411 C 249.386 77.071,249.831 76.896,250.035 77.022 C 250.239 77.148,250.526 76.924,250.674 76.525 C 250.821 76.126,251.135 75.668,251.371 75.506 C 251.629 75.330,251.640 75.212,251.400 75.211 C 251.180 75.211,250.550 75.567,250.000 76.002 M286.157 78.741 C 285.772 79.191,285.282 79.450,285.067 79.318 C 284.852 79.185,284.795 79.269,284.941 79.504 C 285.086 79.739,284.979 80.012,284.702 80.111 C 284.426 80.210,284.290 80.388,284.400 80.506 C 284.510 80.625,285.219 80.203,285.975 79.569 C 286.731 78.935,287.239 78.306,287.104 78.170 C 286.968 78.035,286.542 78.292,286.157 78.741 M283.200 81.185 C 283.200 81.803,279.730 85.197,279.418 84.884 C 279.261 84.728,279.193 84.812,279.267 85.072 C 279.340 85.331,279.040 85.812,278.601 86.139 C 278.161 86.467,277.924 86.858,278.075 87.008 C 278.434 87.367,284.040 81.588,283.764 81.142 C 283.483 80.687,283.200 80.708,283.200 81.185 M237.831 84.103 C 237.147 84.845,237.140 84.909,237.763 84.669 C 238.149 84.521,238.601 84.400,238.766 84.400 C 238.931 84.400,239.067 84.130,239.067 83.800 C 239.067 83.012,238.766 83.086,237.831 84.103 M364.166 90.400 C 364.166 94.470,364.225 96.135,364.298 94.100 C 364.371 92.065,364.371 88.735,364.298 86.700 C 364.225 84.665,364.166 86.330,364.166 90.400 M235.300 85.577 C 234.015 86.649,234.188 86.970,235.600 86.136 C 236.260 85.746,236.800 85.286,236.800 85.114 C 236.800 84.608,236.264 84.773,235.300 85.577 M232.695 87.121 C 232.093 87.486,231.600 87.946,231.600 88.142 C 231.600 88.338,231.862 88.280,232.182 88.015 C 232.503 87.749,232.934 87.636,233.141 87.763 C 233.347 87.891,233.629 87.701,233.768 87.340 C 234.126 86.407,233.935 86.368,232.695 87.121 M275.972 87.900 C 274.252 89.746,274.268 90.632,275.990 88.858 C 276.876 87.946,277.600 87.109,277.600 87.000 C 277.600 86.509,276.916 86.888,275.972 87.900 M273.212 90.292 C 272.289 91.331,272.306 92.066,273.238 91.483 C 273.657 91.222,274.000 90.691,274.000 90.304 C 274.000 89.453,273.958 89.452,273.212 90.292 M218.125 94.700 C 217.706 95.085,217.560 95.272,217.803 95.116 C 218.045 94.960,218.683 94.656,219.222 94.441 C 219.840 94.194,219.959 94.041,219.544 94.025 C 219.184 94.011,218.545 94.315,218.125 94.700 M267.246 95.357 C 266.721 95.648,266.452 95.985,266.648 96.106 C 266.844 96.227,267.428 95.983,267.946 95.563 C 269.026 94.688,268.651 94.578,267.246 95.357 M214.600 96.400 C 214.202 96.840,213.966 97.200,214.077 97.200 C 214.187 97.200,214.693 96.840,215.200 96.400 C 215.707 95.960,215.943 95.600,215.723 95.600 C 215.504 95.600,214.998 95.960,214.600 96.400 M211.044 97.858 C 210.179 98.327,210.023 98.567,210.425 98.816 C 211.072 99.215,211.459 99.010,212.012 97.978 C 212.504 97.058,212.519 97.060,211.044 97.858 M262.977 98.567 C 262.550 98.879,262.321 99.254,262.467 99.401 C 262.614 99.547,263.108 99.292,263.567 98.833 C 264.515 97.885,264.141 97.716,262.977 98.567 M377.359 106.400 C 377.359 109.590,377.421 110.895,377.497 109.300 C 377.573 107.705,377.573 105.095,377.497 103.500 C 377.421 101.905,377.359 103.210,377.359 106.400 M200.159 102.608 C 199.428 103.168,199.433 103.185,200.290 103.072 C 201.351 102.931,201.794 102.567,201.286 102.253 C 201.083 102.128,200.576 102.287,200.159 102.608 M256.500 102.712 C 255.914 102.805,255.600 103.135,255.600 103.656 C 255.600 104.364,255.669 104.388,256.193 103.864 C 256.519 103.538,257.014 103.190,257.293 103.090 C 258.068 102.814,257.515 102.550,256.500 102.712 M187.776 107.387 C 187.117 107.886,187.099 107.976,187.657 107.987 C 188.019 107.994,188.418 107.730,188.545 107.400 C 188.831 106.655,188.747 106.653,187.776 107.387 M248.800 108.400 C 248.293 108.840,248.057 109.200,248.277 109.200 C 248.496 109.200,249.002 108.840,249.400 108.400 C 249.798 107.960,250.034 107.600,249.923 107.600 C 249.813 107.600,249.307 107.960,248.800 108.400 M243.286 111.453 C 242.205 112.573,242.717 112.720,244.021 111.664 C 244.521 111.259,244.766 110.833,244.565 110.716 C 244.364 110.600,243.789 110.932,243.286 111.453 M174.200 112.000 C 174.064 112.220,173.614 112.400,173.200 112.400 C 172.786 112.400,172.343 112.568,172.216 112.774 C 172.075 113.003,172.443 113.017,173.162 112.811 C 173.810 112.625,174.443 112.577,174.570 112.703 C 174.696 112.830,174.800 112.633,174.800 112.267 C 174.800 111.513,174.565 111.409,174.200 112.000 M241.100 112.676 C 240.715 112.776,240.400 113.025,240.400 113.229 C 240.400 113.794,241.043 113.672,241.600 113.000 C 241.874 112.670,242.031 112.421,241.949 112.446 C 241.867 112.472,241.485 112.575,241.100 112.676 M168.701 113.565 C 166.788 114.458,166.589 114.671,167.702 114.632 C 168.196 114.614,168.838 114.375,169.129 114.100 C 169.419 113.825,169.904 113.600,170.205 113.600 C 170.506 113.600,170.864 113.420,171.000 113.200 C 171.361 112.615,170.412 112.766,168.701 113.565 M163.868 115.180 C 162.386 115.870,162.369 115.901,163.359 116.090 C 164.124 116.236,164.539 116.047,165.001 115.343 C 165.340 114.824,165.569 114.415,165.509 114.432 C 165.449 114.450,164.710 114.786,163.868 115.180 M158.792 116.610 C 158.020 117.539,158.491 117.639,159.606 116.782 C 160.347 116.212,160.434 116.016,159.949 116.009 C 159.591 116.004,159.070 116.274,158.792 116.610 M233.396 117.207 C 233.258 117.430,232.990 117.517,232.800 117.400 C 232.404 117.155,231.808 117.942,232.139 118.272 C 232.259 118.393,232.842 118.111,233.433 117.646 C 234.024 117.181,234.314 116.800,234.078 116.800 C 233.841 116.800,233.534 116.983,233.396 117.207 M153.016 118.139 C 152.577 118.460,152.444 118.780,152.686 118.930 C 152.910 119.068,153.415 118.825,153.809 118.391 C 154.623 117.490,154.121 117.331,153.016 118.139 M230.850 118.282 C 230.116 118.573,228.705 120.000,229.151 120.000 C 229.344 120.000,229.726 119.730,230.000 119.400 C 230.274 119.070,230.746 118.800,231.049 118.800 C 231.352 118.800,231.600 118.620,231.600 118.400 C 231.600 118.180,231.555 118.014,231.500 118.032 C 231.445 118.049,231.153 118.161,230.850 118.282 M147.092 119.637 C 146.702 119.864,146.488 120.218,146.615 120.425 C 146.973 121.003,147.360 120.875,147.907 120.000 C 148.455 119.122,148.183 119.001,147.092 119.637 M226.734 120.269 C 226.368 120.366,225.965 120.715,225.839 121.044 C 225.709 121.383,225.781 121.535,226.006 121.396 C 226.224 121.262,226.897 120.893,227.501 120.578 C 228.545 120.034,228.179 119.886,226.734 120.269 M141.467 121.067 C 141.084 121.449,141.138 122.000,141.557 122.000 C 141.754 122.000,142.018 121.730,142.145 121.400 C 142.379 120.790,141.953 120.581,141.467 121.067 M223.600 122.024 C 223.600 122.257,223.420 122.336,223.200 122.200 C 222.980 122.064,222.800 122.154,222.800 122.400 C 222.800 122.646,222.592 122.719,222.338 122.562 C 222.052 122.385,221.985 122.452,222.162 122.739 C 222.363 123.064,222.673 123.082,223.202 122.799 C 224.119 122.308,224.604 121.600,224.024 121.600 C 223.791 121.600,223.600 121.791,223.600 122.024 M220.188 123.620 C 219.807 124.235,220.328 124.632,220.842 124.118 C 221.129 123.831,221.136 123.607,220.862 123.439 C 220.639 123.300,220.335 123.382,220.188 123.620 M216.984 125.227 C 216.560 125.913,216.939 125.980,217.777 125.367 C 218.426 124.893,218.446 124.800,217.900 124.800 C 217.541 124.800,217.129 124.992,216.984 125.227 M121.850 126.720 C 121.686 126.984,121.666 127.200,121.805 127.200 C 121.944 127.200,121.774 127.483,121.429 127.829 C 120.099 129.158,120.595 154.407,121.950 154.394 C 122.459 154.389,122.484 154.314,122.066 154.049 C 121.772 153.863,121.547 153.596,121.566 153.455 C 121.585 153.315,121.595 153.065,121.589 152.900 C 121.388 147.462,121.728 128.509,122.037 127.931 C 122.513 127.041,122.341 125.925,121.850 126.720 M213.093 127.200 C 212.213 128.227,212.828 128.236,214.056 127.213 C 214.736 126.646,214.829 126.423,214.389 126.413 C 214.053 126.406,213.470 126.760,213.093 127.200 M254.000 135.057 C 253.450 135.448,252.797 135.955,252.549 136.184 C 252.301 136.413,251.690 136.870,251.192 137.200 C 250.348 137.759,249.025 138.834,247.600 140.119 C 247.270 140.416,246.055 141.262,244.900 141.997 C 243.745 142.733,242.800 143.484,242.800 143.667 C 242.800 143.850,242.536 144.000,242.214 144.000 C 241.892 144.000,241.435 144.360,241.200 144.800 C 240.954 145.260,240.362 145.600,239.809 145.600 C 239.279 145.600,238.610 145.918,238.323 146.306 C 238.035 146.695,237.350 147.236,236.800 147.510 C 236.250 147.784,235.260 148.367,234.600 148.805 C 233.940 149.242,232.950 149.826,232.400 150.102 C 230.803 150.902,229.027 152.138,228.680 152.690 C 228.504 152.971,228.033 153.200,227.634 153.200 C 227.235 153.200,226.479 153.522,225.954 153.916 C 225.429 154.310,224.550 154.848,224.000 155.113 C 223.450 155.378,222.730 155.776,222.400 155.997 C 222.070 156.219,221.350 156.585,220.800 156.810 C 220.250 157.035,219.080 157.656,218.200 158.190 C 217.320 158.725,216.330 159.275,216.000 159.413 C 214.766 159.931,213.740 160.443,211.608 161.605 C 210.402 162.262,209.122 162.800,208.762 162.800 C 208.402 162.800,207.650 163.160,207.091 163.600 C 206.531 164.040,205.811 164.400,205.491 164.400 C 205.170 164.400,204.450 164.760,203.891 165.200 C 203.331 165.640,202.510 166.000,202.065 166.000 C 201.621 166.000,200.987 166.270,200.657 166.600 C 200.327 166.930,199.729 167.201,199.329 167.203 C 198.928 167.204,198.060 167.563,197.400 168.000 C 196.740 168.437,195.927 168.796,195.594 168.797 C 195.261 168.799,194.316 169.160,193.496 169.600 C 192.675 170.040,191.687 170.401,191.301 170.401 C 190.916 170.402,190.011 170.762,189.290 171.201 C 188.570 171.641,187.649 172.000,187.244 172.000 C 186.839 172.000,186.050 172.360,185.491 172.800 C 184.931 173.240,184.052 173.601,183.537 173.601 C 183.022 173.602,182.059 173.933,181.399 174.336 C 180.738 174.739,179.419 175.173,178.468 175.300 C 177.516 175.428,176.423 175.817,176.037 176.166 C 175.652 176.515,174.700 176.800,173.922 176.800 C 173.114 176.800,172.072 177.143,171.491 177.600 C 170.931 178.041,169.868 178.400,169.126 178.400 C 168.385 178.400,167.414 178.655,166.969 178.967 C 166.523 179.279,165.448 179.656,164.580 179.804 C 163.711 179.953,162.048 180.418,160.885 180.837 C 159.722 181.257,158.277 181.600,157.674 181.600 C 157.071 181.600,156.223 181.843,155.789 182.141 C 155.355 182.438,153.830 182.799,152.400 182.942 C 150.970 183.085,149.620 183.443,149.400 183.736 C 149.173 184.038,147.788 184.381,146.200 184.528 C 144.582 184.678,143.231 185.016,143.000 185.329 C 142.745 185.674,141.332 185.959,139.102 186.116 C 137.178 186.250,135.018 186.626,134.302 186.949 C 133.586 187.273,131.444 187.608,129.543 187.695 C 127.194 187.802,125.755 188.068,125.057 188.526 C 124.267 189.043,123.108 189.200,120.068 189.200 C 116.737 189.200,115.949 189.325,115.109 189.986 C 112.932 191.698,63.298 191.698,61.585 189.985 C 60.924 189.324,60.245 189.200,57.289 189.200 C 54.754 189.200,53.530 189.026,52.886 188.575 C 52.396 188.232,50.781 187.800,49.297 187.615 C 47.814 187.430,45.880 186.999,45.000 186.657 C 44.120 186.315,42.927 186.027,42.349 186.018 C 41.771 186.008,41.073 185.728,40.797 185.396 C 40.522 185.064,39.603 184.682,38.756 184.547 C 37.908 184.411,37.010 184.053,36.759 183.750 C 36.507 183.448,36.029 183.200,35.695 183.200 C 35.124 183.200,32.127 181.942,30.800 181.145 C 30.470 180.947,29.742 180.563,29.182 180.292 C 28.622 180.022,27.902 179.569,27.582 179.287 C 27.262 179.005,25.832 177.925,24.405 176.887 C 20.928 174.359,18.437 171.811,16.231 168.525 C 13.513 164.479,13.030 163.813,12.700 163.667 C 12.535 163.593,12.400 163.291,12.400 162.995 C 12.400 161.291,8.394 160.463,6.982 161.876 C 6.150 162.707,6.321 168.340,7.210 169.412 C 7.510 169.773,7.882 171.144,8.037 172.458 C 8.192 173.772,8.607 175.165,8.959 175.555 C 9.312 175.944,9.600 176.654,9.600 177.131 C 9.600 177.609,9.960 178.360,10.400 178.800 C 10.840 179.240,11.200 179.925,11.200 180.322 C 11.200 180.720,11.650 181.655,12.200 182.400 C 12.750 183.145,13.200 183.908,13.200 184.094 C 13.200 184.569,14.759 186.686,16.300 188.304 C 17.015 189.054,17.600 189.886,17.600 190.152 C 17.600 190.595,21.871 194.778,25.499 197.887 C 27.364 199.486,29.909 201.200,30.418 201.200 C 30.628 201.200,31.130 201.515,31.534 201.900 C 32.328 202.658,33.514 203.407,35.400 204.342 C 36.060 204.670,36.709 205.100,36.842 205.298 C 36.975 205.497,37.872 205.836,38.836 206.053 C 39.800 206.269,40.861 206.686,41.194 206.979 C 41.527 207.271,42.373 207.633,43.072 207.781 C 43.772 207.930,44.559 208.310,44.821 208.626 C 45.083 208.942,45.812 209.200,46.439 209.200 C 47.067 209.200,48.170 209.559,48.890 209.999 C 49.611 210.438,50.906 210.798,51.769 210.799 C 52.689 210.799,53.651 211.084,54.098 211.489 C 54.616 211.957,55.743 212.227,57.629 212.334 C 59.153 212.420,60.400 212.632,60.400 212.806 C 60.400 213.440,62.993 214.000,65.928 214.000 C 68.233 214.000,69.118 214.164,69.710 214.700 C 70.380 215.307,71.542 215.417,78.500 215.531 C 84.769 215.633,86.643 215.786,87.088 216.231 C 87.934 217.077,104.481 217.067,105.184 216.220 C 105.575 215.748,107.496 215.617,115.465 215.520 C 124.254 215.412,125.318 215.328,125.777 214.700 C 126.213 214.104,126.969 214.000,130.884 214.000 C 135.201 214.000,138.000 213.530,138.000 212.804 C 138.000 212.629,140.025 212.418,142.500 212.334 C 145.727 212.225,147.385 211.986,148.361 211.491 C 149.171 211.080,150.633 210.800,151.967 210.800 C 153.448 210.800,154.720 210.528,155.704 210.000 C 156.571 209.536,157.961 209.200,159.018 209.200 C 160.020 209.200,161.326 208.953,161.920 208.651 C 162.514 208.349,164.067 207.972,165.372 207.813 C 166.676 207.654,168.120 207.278,168.580 206.977 C 169.040 206.675,170.492 206.311,171.808 206.167 C 173.124 206.023,174.560 205.685,175.000 205.416 C 175.440 205.147,176.687 204.807,177.771 204.661 C 178.855 204.515,180.025 204.150,180.371 203.851 C 180.717 203.551,181.779 203.207,182.731 203.086 C 183.683 202.966,184.777 202.583,185.163 202.234 C 185.548 201.885,186.479 201.599,187.231 201.598 C 187.984 201.596,189.140 201.302,189.800 200.943 C 190.460 200.585,191.878 200.143,192.951 199.962 C 194.024 199.780,195.194 199.378,195.551 199.067 C 195.908 198.756,196.884 198.379,197.721 198.229 C 198.558 198.079,199.342 197.696,199.464 197.378 C 199.603 197.016,200.247 196.800,201.189 196.800 C 202.086 196.800,203.102 196.478,203.709 196.000 C 204.269 195.560,205.094 195.200,205.544 195.200 C 206.563 195.200,208.400 194.387,208.400 193.936 C 208.400 193.751,208.985 193.599,209.700 193.599 C 210.415 193.598,211.589 193.238,212.310 192.799 C 213.030 192.359,213.930 191.999,214.310 191.997 C 214.689 191.996,215.540 191.637,216.200 191.200 C 216.860 190.763,217.691 190.404,218.046 190.403 C 218.401 190.401,219.150 190.040,219.709 189.600 C 220.269 189.160,221.063 188.800,221.474 188.800 C 221.885 188.800,222.577 188.553,223.011 188.251 C 223.445 187.949,224.373 187.578,225.072 187.425 C 225.772 187.273,226.550 186.902,226.800 186.600 C 227.050 186.298,227.770 185.938,228.400 185.800 C 229.030 185.662,229.755 185.295,230.013 184.985 C 230.270 184.675,231.086 184.308,231.826 184.169 C 232.566 184.030,233.380 183.665,233.635 183.358 C 233.890 183.051,234.412 182.800,234.795 182.800 C 235.178 182.800,235.936 182.451,236.478 182.025 C 237.020 181.598,237.946 181.128,238.537 180.980 C 239.127 180.832,239.743 180.502,239.905 180.247 C 240.067 179.992,240.650 179.563,241.200 179.294 C 241.750 179.026,242.470 178.644,242.800 178.446 C 243.130 178.248,243.850 177.888,244.400 177.646 C 245.457 177.181,246.314 176.685,248.084 175.516 C 248.680 175.122,249.423 174.800,249.735 174.800 C 250.047 174.800,250.535 174.520,250.819 174.177 C 251.104 173.834,251.891 173.295,252.568 172.979 C 253.246 172.664,254.520 171.951,255.400 171.396 C 256.280 170.840,257.386 170.221,257.858 170.019 C 258.330 169.817,258.780 169.505,258.858 169.326 C 259.056 168.870,261.486 167.200,261.950 167.200 C 262.160 167.200,262.752 166.842,263.266 166.404 C 264.465 165.381,266.853 163.570,268.017 162.800 C 268.516 162.470,269.751 161.438,270.762 160.507 C 271.773 159.576,272.735 158.811,272.900 158.807 C 273.065 158.803,273.200 158.530,273.200 158.200 C 273.200 157.870,273.470 157.600,273.800 157.600 C 274.130 157.600,274.400 157.429,274.400 157.221 C 274.400 157.012,274.850 156.356,275.400 155.762 C 277.469 153.530,278.270 154.521,259.545 136.163 C 257.760 134.413,255.533 133.969,254.000 135.057 M184.092 138.924 C 183.162 140.130,183.086 140.490,183.852 140.053 C 185.578 139.070,185.704 138.926,185.063 138.679 C 184.730 138.552,184.293 138.662,184.092 138.924 M181.503 140.230 C 181.377 140.357,181.012 140.498,180.693 140.545 C 180.092 140.633,178.525 142.000,179.024 142.000 C 179.385 142.000,182.000 140.389,182.000 140.167 C 182.000 139.931,181.774 139.960,181.503 140.230 M174.800 142.649 C 174.800 143.118,174.939 143.185,175.300 142.892 C 175.575 142.669,176.160 142.398,176.600 142.289 C 177.125 142.160,176.953 142.077,176.100 142.046 C 175.148 142.012,174.800 142.174,174.800 142.649 M170.957 143.939 C 170.521 144.346,169.902 144.782,169.582 144.908 C 169.084 145.104,169.087 145.141,169.600 145.162 C 170.296 145.192,170.783 144.876,171.549 143.900 C 172.266 142.985,171.960 143.006,170.957 143.939 M161.144 147.187 C 160.625 147.619,160.397 147.979,160.638 147.987 C 160.879 147.994,161.402 147.640,161.800 147.200 C 162.726 146.176,162.366 146.169,161.144 147.187 M155.384 148.827 C 154.915 149.586,155.599 149.773,156.295 149.076 C 156.919 148.453,156.920 148.400,156.309 148.400 C 155.945 148.400,155.529 148.592,155.384 148.827 M146.900 151.476 C 147.285 151.576,147.915 151.576,148.300 151.476 C 148.685 151.375,148.370 151.293,147.600 151.293 C 146.830 151.293,146.515 151.375,146.900 151.476 M126.640 155.261 C 125.922 156.100,125.923 156.114,126.651 155.801 C 127.063 155.623,127.984 155.396,128.697 155.296 C 130.221 155.081,130.045 154.400,128.465 154.400 C 127.847 154.400,127.060 154.772,126.640 155.261 M133.300 154.676 C 133.685 154.776,134.315 154.776,134.700 154.676 C 135.085 154.575,134.770 154.493,134.000 154.493 C 133.230 154.493,132.915 154.575,133.300 154.676 M387.200 201.200 C 386.760 201.640,386.398 202.225,386.396 202.500 C 386.394 202.775,385.950 203.900,385.409 205.000 C 384.868 206.100,384.419 207.293,384.413 207.651 C 384.406 208.009,384.142 208.517,383.826 208.779 C 383.510 209.041,383.128 209.818,382.977 210.505 C 382.826 211.192,382.454 212.003,382.151 212.306 C 381.848 212.609,381.600 213.384,381.600 214.029 C 381.600 214.673,381.465 215.201,381.300 215.203 C 380.932 215.207,380.000 217.152,380.000 217.917 C 380.000 218.223,379.640 218.931,379.200 219.491 C 378.760 220.050,378.400 220.844,378.400 221.254 C 378.400 221.664,378.040 222.360,377.600 222.800 C 377.160 223.240,376.800 224.028,376.800 224.551 C 376.800 225.074,376.530 225.726,376.200 226.000 C 375.870 226.274,375.600 226.665,375.600 226.870 C 375.600 227.075,375.150 227.905,374.600 228.714 C 374.050 229.523,373.600 230.431,373.600 230.730 C 373.600 231.029,373.240 231.731,372.800 232.291 C 372.360 232.850,372.000 233.624,372.000 234.011 C 372.000 234.398,371.770 234.803,371.489 234.910 C 371.208 235.018,370.448 236.163,369.801 237.453 C 369.154 238.744,368.394 240.038,368.113 240.328 C 367.831 240.618,367.495 241.280,367.365 241.799 C 367.234 242.318,366.874 242.839,366.564 242.959 C 366.254 243.078,366.000 243.442,366.000 243.767 C 366.000 244.093,365.415 245.197,364.700 246.221 C 363.985 247.244,363.220 248.371,363.000 248.724 C 362.780 249.077,362.375 249.612,362.100 249.912 C 361.825 250.212,361.600 250.611,361.600 250.800 C 361.600 250.989,361.326 251.417,360.990 251.753 C 360.655 252.088,359.446 253.766,358.304 255.481 C 357.163 257.197,355.997 258.838,355.714 259.129 C 355.431 259.419,355.200 259.798,355.200 259.970 C 355.200 260.142,354.795 260.737,354.300 261.291 C 351.791 264.099,349.217 267.168,348.170 268.600 C 345.257 272.583,330.143 287.618,326.129 290.525 C 324.990 291.350,324.000 292.159,323.929 292.322 C 323.822 292.567,322.372 293.731,318.208 296.912 C 315.708 298.822,313.335 300.430,312.737 300.620 C 312.332 300.749,312.000 301.026,312.000 301.237 C 312.000 301.447,311.550 301.791,311.000 302.000 C 310.450 302.209,310.000 302.565,310.000 302.790 C 310.000 303.016,309.794 303.200,309.541 303.200 C 309.289 303.200,308.074 303.872,306.841 304.694 C 304.373 306.339,302.863 307.217,300.909 308.141 C 299.629 308.746,299.062 309.148,297.571 310.500 C 297.147 310.885,296.588 311.200,296.328 311.200 C 295.512 311.200,293.200 312.146,293.200 312.480 C 293.200 312.656,292.885 312.804,292.500 312.809 C 292.115 312.814,291.350 313.170,290.800 313.600 C 290.250 314.030,289.525 314.386,289.189 314.391 C 288.853 314.396,288.270 314.760,287.893 315.200 C 287.516 315.640,286.750 316.000,286.191 316.000 C 285.632 316.000,285.078 316.251,284.961 316.559 C 284.843 316.866,283.963 317.235,283.006 317.378 C 282.049 317.522,281.049 317.900,280.784 318.220 C 280.519 318.539,279.898 318.800,279.405 318.800 C 278.912 318.800,278.079 319.132,277.554 319.539 C 277.029 319.945,275.903 320.387,275.050 320.522 C 274.198 320.656,273.194 321.043,272.819 321.383 C 272.444 321.722,271.631 322.000,271.012 322.000 C 270.394 322.000,269.148 322.349,268.244 322.775 C 267.340 323.201,265.916 323.661,265.079 323.797 C 264.242 323.933,263.458 324.304,263.336 324.622 C 263.185 325.016,262.497 325.200,261.176 325.200 C 259.222 325.200,257.200 325.843,257.200 326.464 C 257.200 326.649,256.327 326.800,255.260 326.800 C 253.246 326.800,250.800 327.450,250.800 327.986 C 250.800 328.155,249.043 328.378,246.896 328.481 C 244.749 328.584,242.622 328.867,242.171 329.109 C 241.719 329.351,238.840 329.670,235.774 329.820 C 232.481 329.980,229.872 330.295,229.399 330.590 C 228.958 330.865,226.998 331.173,225.043 331.276 C 222.177 331.426,221.385 331.606,220.945 332.208 C 220.081 333.389,220.153 360.269,221.023 361.511 C 221.944 362.826,237.097 362.903,238.400 361.600 C 239.115 360.885,239.743 360.799,244.300 360.787 C 248.293 360.777,249.878 360.606,251.600 360.000 C 252.810 359.574,254.885 359.220,256.211 359.213 C 257.610 359.205,258.958 358.965,259.422 358.640 C 259.861 358.332,261.296 357.953,262.611 357.798 C 263.925 357.642,265.392 357.269,265.872 356.967 C 266.351 356.665,267.521 356.300,268.472 356.156 C 269.422 356.012,270.470 355.672,270.800 355.400 C 271.130 355.129,272.337 354.802,273.482 354.675 C 274.627 354.547,275.977 354.180,276.482 353.860 C 276.987 353.540,277.973 353.159,278.672 353.014 C 279.372 352.868,280.143 352.510,280.385 352.218 C 280.628 351.926,281.615 351.569,282.580 351.424 C 283.545 351.279,284.551 350.900,284.816 350.580 C 285.081 350.261,285.702 350.000,286.195 350.000 C 286.688 350.000,287.550 349.640,288.109 349.200 C 288.669 348.760,289.384 348.400,289.699 348.400 C 290.411 348.400,295.104 346.079,295.417 345.572 C 295.544 345.367,295.969 345.200,296.362 345.200 C 296.755 345.200,297.402 344.840,297.800 344.400 C 298.198 343.960,298.918 343.600,299.400 343.600 C 299.882 343.600,300.602 343.240,301.000 342.800 C 301.398 342.360,302.145 342.000,302.659 342.000 C 303.173 342.000,303.818 341.640,304.093 341.200 C 304.368 340.760,304.883 340.400,305.239 340.400 C 305.594 340.400,306.698 339.779,307.692 339.020 C 308.686 338.262,309.974 337.521,310.554 337.376 C 311.135 337.230,311.743 336.904,311.905 336.651 C 312.210 336.177,315.411 334.000,315.805 334.000 C 315.927 334.000,316.657 333.370,317.427 332.600 C 318.197 331.830,319.075 331.200,319.379 331.200 C 319.971 331.200,321.171 330.282,323.657 327.925 C 324.513 327.114,325.525 326.349,325.907 326.226 C 326.288 326.103,327.285 325.371,328.122 324.601 C 328.960 323.830,329.732 323.200,329.838 323.200 C 329.945 323.200,330.725 322.525,331.572 321.700 C 332.419 320.875,334.077 319.261,335.256 318.114 C 336.435 316.967,339.255 314.132,341.522 311.814 C 343.789 309.496,345.802 307.600,345.995 307.600 C 346.188 307.600,346.460 307.240,346.600 306.800 C 346.740 306.360,347.112 306.000,347.427 306.000 C 347.742 306.000,348.000 305.827,348.000 305.615 C 348.000 305.404,348.720 304.518,349.600 303.647 C 350.480 302.776,351.200 301.958,351.200 301.831 C 351.200 301.703,351.901 300.924,352.758 300.099 C 353.616 299.275,354.431 298.217,354.570 297.750 C 354.709 297.282,355.447 296.256,356.211 295.470 C 356.975 294.683,357.600 293.851,357.600 293.620 C 357.600 293.389,357.756 293.200,357.948 293.200 C 358.139 293.200,358.972 292.120,359.800 290.800 C 360.628 289.480,361.420 288.400,361.561 288.400 C 361.703 288.400,362.174 287.738,362.609 286.930 C 363.044 286.121,363.895 284.837,364.500 284.075 C 365.105 283.313,365.600 282.395,365.600 282.034 C 365.600 281.673,365.915 281.080,366.300 280.717 C 367.931 279.177,368.936 277.524,372.085 271.200 C 372.797 269.770,373.699 268.365,374.090 268.077 C 374.480 267.790,374.800 267.188,374.800 266.740 C 374.800 266.293,375.160 265.469,375.600 264.909 C 376.040 264.350,376.400 263.556,376.400 263.146 C 376.400 262.736,376.760 262.040,377.200 261.600 C 377.640 261.160,378.000 260.372,378.000 259.849 C 378.000 259.326,378.258 258.683,378.574 258.421 C 378.890 258.159,379.271 257.387,379.421 256.706 C 379.570 256.024,380.031 254.912,380.445 254.233 C 380.859 253.555,381.198 252.505,381.199 251.900 C 381.199 251.295,381.351 250.800,381.536 250.800 C 382.046 250.800,382.800 248.906,382.800 247.624 C 382.800 246.998,383.057 246.387,383.372 246.266 C 383.696 246.142,384.064 245.211,384.221 244.123 C 384.373 243.065,384.761 241.899,385.083 241.531 C 385.405 241.163,385.766 240.083,385.886 239.131 C 386.007 238.179,386.346 237.122,386.639 236.783 C 386.933 236.444,387.293 235.094,387.439 233.783 C 387.586 232.472,387.953 230.791,388.254 230.047 C 388.556 229.303,388.917 227.143,389.055 225.247 C 389.212 223.092,389.529 221.544,389.899 221.117 C 390.694 220.202,391.129 205.845,390.439 203.318 C 389.678 200.536,388.581 199.819,387.200 201.200 M295.900 247.082 C 296.395 247.178,297.205 247.178,297.700 247.082 C 298.195 246.987,297.790 246.909,296.800 246.909 C 295.810 246.909,295.405 246.987,295.900 247.082 M299.703 248.107 C 299.971 248.673,300.282 249.130,300.395 249.121 C 301.095 249.067,301.619 249.276,302.171 249.829 C 302.517 250.174,302.800 250.271,302.800 250.043 C 302.800 249.815,302.395 249.419,301.900 249.164 C 301.405 248.909,300.599 248.335,300.108 247.888 L 299.217 247.077 299.703 248.107 M290.000 249.600 C 289.493 250.040,289.293 250.400,289.556 250.400 C 289.818 250.400,290.420 250.040,290.892 249.600 C 291.364 249.160,291.564 248.800,291.337 248.800 C 291.109 248.800,290.507 249.160,290.000 249.600 M287.144 251.166 C 286.625 251.587,286.323 252.055,286.473 252.206 C 286.839 252.573,287.502 252.130,288.012 251.178 C 288.535 250.201,288.338 250.198,287.144 251.166 M309.200 255.586 C 309.200 255.798,309.568 256.169,310.018 256.410 C 310.774 256.814,310.797 256.785,310.322 256.024 C 309.781 255.158,309.200 254.931,309.200 255.586 M268.900 260.288 C 268.299 260.503,268.226 261.600,268.813 261.600 C 269.225 261.600,269.831 260.479,269.549 260.238 C 269.467 260.167,269.175 260.190,268.900 260.288 M264.855 262.133 C 264.521 262.536,264.554 262.667,264.989 262.667 C 265.306 262.667,265.658 262.427,265.770 262.133 C 265.883 261.840,265.823 261.600,265.636 261.600 C 265.450 261.600,265.099 261.840,264.855 262.133 M317.701 262.259 C 318.086 262.702,318.266 263.214,318.101 263.397 C 317.935 263.579,318.012 263.607,318.271 263.458 C 318.546 263.301,318.850 263.526,319.000 264.000 C 319.142 264.446,319.425 264.708,319.629 264.582 C 320.258 264.194,320.056 263.844,318.500 262.626 C 317.675 261.981,317.315 261.816,317.701 262.259 M257.400 265.200 C 256.542 265.768,256.400 265.995,256.900 265.997 C 257.285 265.999,257.960 265.640,258.400 265.200 C 259.422 264.178,258.943 264.178,257.400 265.200 M253.000 266.800 C 252.864 267.020,252.403 267.200,251.976 267.200 C 251.549 267.200,251.200 267.376,251.200 267.590 C 251.200 267.827,251.554 267.849,252.100 267.648 C 252.595 267.465,253.225 267.394,253.500 267.491 C 253.775 267.588,254.000 267.382,254.000 267.033 C 254.000 266.327,253.382 266.183,253.000 266.800 M318.792 269.010 C 318.514 269.345,318.397 269.731,318.533 269.867 C 318.824 270.157,320.000 269.263,320.000 268.751 C 320.000 268.200,319.348 268.340,318.792 269.010 M245.251 269.560 C 244.949 269.751,244.774 270.122,244.861 270.384 C 244.964 270.693,245.287 270.567,245.772 270.031 C 246.536 269.187,246.249 268.928,245.251 269.560 M317.200 270.400 C 317.200 270.620,316.998 270.755,316.750 270.700 C 316.503 270.645,316.218 270.825,316.117 271.100 C 315.834 271.870,316.592 271.693,317.400 270.800 C 317.811 270.346,317.924 270.000,317.662 270.000 C 317.408 270.000,317.200 270.180,317.200 270.400 M235.700 272.665 C 235.425 272.776,235.214 273.167,235.232 273.533 C 235.251 273.949,235.339 274.012,235.465 273.700 C 235.576 273.425,235.922 273.200,236.233 273.200 C 236.545 273.200,236.800 273.020,236.800 272.800 C 236.800 272.374,236.509 272.339,235.700 272.665 M312.800 274.024 C 312.800 274.257,312.620 274.336,312.400 274.200 C 312.180 274.064,312.000 274.143,312.000 274.376 C 312.000 274.988,312.622 274.897,313.200 274.200 C 313.544 273.785,313.559 273.600,313.249 273.600 C 313.002 273.600,312.800 273.791,312.800 274.024 M230.392 274.610 C 229.644 275.511,230.078 275.615,230.970 274.748 C 231.393 274.337,231.551 274.000,231.319 274.000 C 231.087 274.000,230.670 274.274,230.392 274.610 M308.217 276.524 C 307.106 277.200,306.280 278.000,306.694 278.000 C 306.887 278.000,307.655 277.550,308.400 277.000 C 309.776 275.985,309.648 275.652,308.217 276.524 M40.000 277.600 C 40.000 277.820,40.000 278.090,40.000 278.200 C 40.000 278.697,40.559 278.357,40.640 277.811 C 40.689 277.475,40.565 277.200,40.365 277.200 C 40.164 277.200,40.000 277.380,40.000 277.600 M42.000 277.493 C 42.000 277.701,42.450 278.077,43.000 278.327 C 43.821 278.701,44.000 278.677,44.000 278.191 C 44.000 277.866,43.835 277.600,43.633 277.600 C 43.431 277.600,42.981 277.491,42.633 277.357 C 42.285 277.224,42.000 277.285,42.000 277.493 M220.012 277.584 C 219.688 277.789,219.527 278.061,219.654 278.188 C 219.969 278.503,221.200 278.001,221.200 277.557 C 221.200 277.101,220.760 277.111,220.012 277.584 M213.800 279.200 C 213.664 279.420,213.068 279.614,212.476 279.632 C 211.884 279.649,211.635 279.757,211.921 279.872 C 212.666 280.170,215.200 279.637,215.200 279.182 C 215.200 278.676,214.115 278.690,213.800 279.200 M208.180 280.769 C 207.971 280.972,207.260 281.215,206.600 281.309 C 205.487 281.468,205.505 281.484,206.857 281.540 C 207.826 281.580,208.392 281.399,208.545 281.000 C 208.810 280.308,208.716 280.249,208.180 280.769 M49.600 281.976 C 49.600 282.507,50.428 282.963,51.600 283.079 C 52.544 283.172,52.552 283.157,51.741 282.817 C 51.268 282.618,50.763 282.263,50.617 282.028 C 50.291 281.500,49.600 281.465,49.600 281.976 M297.134 282.669 C 296.768 282.766,296.368 283.105,296.247 283.423 C 295.945 284.209,296.286 284.148,297.491 283.200 C 298.495 282.410,298.437 282.324,297.134 282.669 M197.200 283.145 C 197.200 283.334,197.650 283.403,198.200 283.298 C 198.750 283.193,199.200 283.038,199.200 282.953 C 199.200 282.869,198.750 282.800,198.200 282.800 C 197.650 282.800,197.200 282.955,197.200 283.145 M194.487 283.735 C 193.986 284.014,193.688 284.355,193.827 284.493 C 194.143 284.809,195.234 284.409,195.929 283.722 C 196.641 283.018,195.765 283.025,194.487 283.735 M294.808 283.995 C 294.494 284.189,294.131 284.281,293.999 284.199 C 293.868 284.118,293.550 284.388,293.293 284.800 C 292.842 285.522,292.870 285.525,294.113 284.874 C 295.820 283.980,295.758 284.025,295.555 283.822 C 295.457 283.724,295.121 283.802,294.808 283.995 M56.973 285.499 C 57.082 286.240,57.817 286.620,58.137 286.101 C 58.253 285.914,58.017 285.553,57.613 285.301 C 57.005 284.921,56.894 284.956,56.973 285.499 M187.300 285.065 C 186.706 285.304,186.624 286.400,187.200 286.400 C 187.420 286.400,187.600 286.143,187.600 285.829 C 187.600 285.515,187.915 285.176,188.300 285.076 C 188.771 284.953,188.803 284.888,188.400 284.878 C 188.070 284.870,187.575 284.954,187.300 285.065 M290.000 285.933 C 290.000 286.190,289.719 286.400,289.376 286.400 C 289.026 286.400,288.872 286.592,289.024 286.838 C 289.208 287.137,289.495 287.077,289.924 286.648 C 290.269 286.302,290.428 285.895,290.276 285.743 C 290.124 285.591,290.000 285.677,290.000 285.933 M182.305 286.283 C 182.802 286.379,183.522 286.375,183.905 286.275 C 184.287 286.175,183.880 286.096,183.000 286.101 C 182.120 286.105,181.807 286.187,182.305 286.283 M179.200 287.000 C 178.856 287.415,178.841 287.600,179.151 287.600 C 179.398 287.600,179.600 287.409,179.600 287.176 C 179.600 286.943,179.780 286.864,180.000 287.000 C 180.220 287.136,180.400 287.057,180.400 286.824 C 180.400 286.212,179.778 286.303,179.200 287.000 M42.800 286.935 C 42.800 287.009,43.520 287.827,44.400 288.752 C 45.280 289.677,46.000 290.231,46.000 289.983 C 46.000 289.736,45.367 288.918,44.593 288.167 C 43.309 286.920,42.800 286.570,42.800 286.935 M286.568 287.740 C 286.429 288.101,286.127 288.279,285.896 288.136 C 285.640 287.977,285.597 288.071,285.786 288.377 C 286.025 288.764,286.236 288.735,286.724 288.248 C 287.069 287.902,287.232 287.499,287.086 287.352 C 286.939 287.206,286.706 287.380,286.568 287.740 M65.700 288.500 C 65.791 288.775,66.199 289.064,66.605 289.143 C 67.283 289.275,67.291 289.234,66.700 288.643 C 65.932 287.875,65.470 287.808,65.700 288.500 M170.000 288.490 L 168.600 288.909 169.784 289.242 C 170.598 289.472,171.065 289.423,171.278 289.088 C 171.573 288.624,171.713 287.959,171.500 288.036 C 171.445 288.056,170.770 288.260,170.000 288.490 M283.200 289.600 C 282.693 290.040,282.412 290.400,282.576 290.400 C 282.740 290.400,283.331 290.040,283.891 289.600 C 284.450 289.160,284.731 288.800,284.515 288.800 C 284.299 288.800,283.707 289.160,283.200 289.600 M162.577 289.562 C 162.700 289.762,163.161 289.831,163.600 289.716 C 164.701 289.428,164.602 289.200,163.376 289.200 C 162.813 289.200,162.454 289.363,162.577 289.562 M71.200 289.957 C 71.200 290.154,71.485 290.424,71.833 290.557 C 72.811 290.933,72.941 290.851,72.400 290.200 C 71.848 289.535,71.200 289.404,71.200 289.957 M159.251 289.960 C 158.949 290.151,158.769 290.481,158.851 290.693 C 158.933 290.905,159.540 290.747,160.200 290.341 C 161.180 289.739,161.253 289.605,160.600 289.608 C 160.160 289.610,159.553 289.769,159.251 289.960 M46.400 290.600 C 46.400 290.967,46.594 291.202,46.830 291.123 C 47.067 291.045,47.260 290.809,47.260 290.600 C 47.260 290.391,47.067 290.156,46.830 290.077 C 46.594 289.998,46.400 290.233,46.400 290.600 M149.700 291.087 C 150.305 291.178,151.295 291.178,151.900 291.087 C 152.505 290.995,152.010 290.920,150.800 290.920 C 149.590 290.920,149.095 290.995,149.700 291.087 M47.200 291.948 C 47.200 292.497,48.303 293.281,48.539 292.899 C 48.654 292.713,48.400 292.343,47.974 292.077 C 47.548 291.811,47.200 291.753,47.200 291.948 M133.200 292.745 C 133.200 292.934,133.650 293.003,134.200 292.898 C 134.750 292.793,135.200 292.638,135.200 292.553 C 135.200 292.469,134.750 292.400,134.200 292.400 C 133.650 292.400,133.200 292.555,133.200 292.745 M87.275 293.225 C 87.371 293.514,87.686 293.829,87.975 293.925 C 88.275 294.025,88.425 293.875,88.325 293.575 C 88.229 293.286,87.914 292.971,87.625 292.875 C 87.325 292.775,87.175 292.925,87.275 293.225 M50.265 294.705 C 53.013 297.172,54.000 297.954,54.006 297.670 C 54.009 297.521,54.180 297.665,54.384 297.988 C 54.589 298.312,54.873 298.460,55.015 298.318 C 55.158 298.175,54.493 297.488,53.537 296.791 C 52.582 296.094,51.849 295.347,51.910 295.132 C 51.970 294.917,51.858 294.841,51.660 294.963 C 51.463 295.085,50.965 294.738,50.555 294.192 C 50.146 293.647,49.538 293.202,49.205 293.205 C 48.851 293.208,49.290 293.830,50.265 294.705 M92.500 294.287 C 93.105 294.378,94.095 294.378,94.700 294.287 C 95.305 294.195,94.810 294.120,93.600 294.120 C 92.390 294.120,91.895 294.195,92.500 294.287 M119.900 294.295 C 121.055 294.376,122.945 294.376,124.100 294.295 C 125.255 294.214,124.310 294.148,122.000 294.148 C 119.690 294.148,118.745 294.214,119.900 294.295 M268.800 295.624 C 268.800 295.857,268.620 295.936,268.400 295.800 C 268.180 295.664,268.000 295.743,268.000 295.976 C 268.000 296.588,268.622 296.497,269.200 295.800 C 269.544 295.385,269.559 295.200,269.249 295.200 C 269.002 295.200,268.800 295.391,268.800 295.624 M264.093 297.200 C 263.818 297.640,263.739 298.000,263.917 298.000 C 264.333 298.000,265.200 297.136,265.200 296.720 C 265.200 296.131,264.598 296.392,264.093 297.200 M56.920 299.529 C 56.648 299.699,56.844 300.068,57.443 300.519 C 58.478 301.296,58.684 301.007,57.864 299.929 C 57.584 299.560,57.159 299.380,56.920 299.529 M251.051 301.806 C 250.696 302.161,250.197 302.322,249.941 302.164 C 249.652 301.985,249.584 302.051,249.762 302.338 C 250.160 302.982,251.007 302.914,251.608 302.190 C 252.312 301.343,251.840 301.018,251.051 301.806 M245.384 303.627 C 245.239 303.861,245.216 304.149,245.333 304.267 C 245.620 304.553,246.400 304.048,246.400 303.576 C 246.400 303.065,245.709 303.099,245.384 303.627 M65.000 305.200 C 65.660 305.637,66.380 305.995,66.600 305.995 C 66.820 305.995,66.460 305.637,65.800 305.200 C 65.140 304.763,64.420 304.405,64.200 304.405 C 63.980 304.405,64.340 304.763,65.000 305.200 M241.200 304.746 C 241.200 305.010,240.795 305.389,240.300 305.588 C 239.691 305.832,239.610 305.957,240.051 305.975 C 240.791 306.003,241.847 304.914,241.457 304.524 C 241.316 304.382,241.200 304.482,241.200 304.746 M68.122 306.598 C 68.740 307.149,69.422 307.600,69.638 307.600 C 70.232 307.600,68.716 306.167,67.800 305.862 C 67.182 305.657,67.255 305.824,68.122 306.598 M235.612 306.586 C 235.335 306.919,234.950 307.093,234.755 306.972 C 234.560 306.851,234.400 306.943,234.400 307.176 C 234.400 307.409,234.546 307.600,234.724 307.600 C 235.280 307.600,236.611 306.478,236.356 306.223 C 236.223 306.090,235.888 306.253,235.612 306.586 M71.360 308.267 C 72.530 309.273,73.564 309.559,72.716 308.642 C 72.432 308.335,72.065 308.166,71.900 308.266 C 71.735 308.365,71.600 308.197,71.600 307.890 C 71.600 307.584,71.302 307.333,70.937 307.333 C 70.441 307.333,70.547 307.568,71.360 308.267 M229.384 308.027 C 228.985 308.671,229.265 308.695,230.800 308.146 L 232.200 307.645 230.924 307.623 C 230.222 307.610,229.529 307.792,229.384 308.027 M223.500 309.476 C 223.115 309.576,222.800 309.825,222.800 310.029 C 222.800 310.594,223.443 310.472,224.000 309.800 C 224.274 309.470,224.431 309.221,224.349 309.246 C 224.267 309.272,223.885 309.375,223.500 309.476 M78.978 310.835 C 78.644 311.376,79.473 312.268,79.893 311.819 C 80.062 311.638,79.974 311.410,79.698 311.311 C 79.421 311.212,79.297 310.967,79.421 310.766 C 79.545 310.565,79.557 310.400,79.447 310.400 C 79.337 310.400,79.126 310.596,78.978 310.835 M217.100 310.920 C 216.495 311.159,216.000 311.500,216.000 311.677 C 216.000 312.224,216.667 312.037,217.656 311.213 C 218.715 310.331,218.662 310.302,217.100 310.920 M83.443 312.569 C 83.738 313.336,84.709 313.670,85.049 313.121 C 85.216 312.851,85.141 312.789,84.859 312.964 C 84.599 313.124,84.289 312.975,84.154 312.625 C 84.022 312.281,83.759 312.000,83.570 312.000 C 83.380 312.000,83.323 312.256,83.443 312.569 M208.977 312.567 C 208.550 312.879,208.310 313.244,208.443 313.377 C 208.839 313.772,210.000 313.160,210.000 312.557 C 210.000 311.865,209.936 311.866,208.977 312.567 M200.182 314.263 C 199.784 314.554,199.555 314.889,199.674 315.007 C 199.974 315.307,202.000 314.497,202.000 314.077 C 202.000 313.561,201.001 313.663,200.182 314.263 M89.423 314.567 C 90.261 315.180,90.640 315.113,90.216 314.427 C 90.071 314.192,89.659 314.000,89.300 314.000 C 88.754 314.000,88.774 314.093,89.423 314.567 M96.092 316.075 C 96.291 316.673,97.200 317.002,97.200 316.476 C 97.200 316.261,96.915 315.976,96.567 315.843 C 96.177 315.693,95.994 315.782,96.092 316.075 M187.505 317.083 C 188.002 317.179,188.722 317.175,189.105 317.075 C 189.487 316.975,189.080 316.896,188.200 316.901 C 187.320 316.905,187.007 316.987,187.505 317.083 M104.000 317.800 C 104.274 318.130,104.780 318.400,105.125 318.400 C 105.628 318.400,105.598 318.283,104.976 317.813 C 103.961 317.044,103.366 317.037,104.000 317.800 M179.300 317.482 C 178.805 317.578,178.400 317.823,178.400 318.028 C 178.400 318.612,179.450 318.463,180.000 317.800 C 180.274 317.470,180.431 317.225,180.349 317.254 C 180.267 317.284,179.795 317.387,179.300 317.482 M108.505 318.687 C 109.114 318.779,110.014 318.777,110.505 318.682 C 110.997 318.587,110.500 318.511,109.400 318.514 C 108.300 318.517,107.897 318.595,108.505 318.687 M115.200 318.740 C 115.200 319.542,116.809 320.040,119.015 319.920 C 121.782 319.769,122.080 319.018,119.400 318.947 L 117.400 318.894 119.200 319.187 L 121.000 319.480 119.086 319.540 C 117.907 319.577,116.793 319.352,116.186 318.954 C 115.612 318.578,115.200 318.489,115.200 318.740 M171.907 318.690 C 172.626 318.779,173.706 318.777,174.307 318.686 C 174.908 318.595,174.320 318.522,173.000 318.524 C 171.680 318.526,171.188 318.601,171.907 318.690 M157.200 319.224 C 157.200 319.457,156.992 319.519,156.738 319.362 C 156.452 319.185,156.385 319.252,156.562 319.538 C 156.998 320.244,163.207 320.121,164.176 319.387 C 164.828 318.895,164.848 318.800,164.300 318.800 C 163.941 318.800,163.536 318.980,163.400 319.200 C 163.264 319.420,161.858 319.570,160.276 319.533 L 157.400 319.466 159.800 319.200 L 162.200 318.934 159.700 318.867 C 158.165 318.826,157.200 318.963,157.200 319.224 M138.800 320.000 L 121.800 320.213 138.900 320.307 C 150.096 320.368,156.000 320.262,156.000 320.000 C 156.000 319.780,155.955 319.642,155.900 319.693 C 155.845 319.745,148.150 319.883,138.800 320.000 " stroke="none" fill="#40b8b4" fill-rule="evenodd"></path></g></svg>